<svg xmlns="http://www.w3.org/2000/svg" width="155" height="155" viewBox="0 0 155 155"><path fill="#F5C938" d="M77.5.8c-42.4 0-76.7 34.3-76.7 76.7s34.3 76.7 76.7 76.7c42.4 0 76.7-34.3 76.7-76.7s-34.3-76.7-76.7-76.7zm73.9 69.3l.2 2.4c0 .4-.3.8-.7.9-.4 0-.8-.3-.9-.7l-.2-2.4c0-.4.3-.8.7-.9.5-.1.9.2.9.7zm-1-7.2c.2.8.3 1.6.4 2.4.1.4-.2.8-.7.9-.4.1-.8-.2-.9-.7-.1-.8-.3-1.6-.4-2.3-.1-.4.2-.9.6-.9.5-.2.9.1 1 .6zm-2.8-7.6c.4-.1.9.1 1 .5.2.8.5 1.6.7 2.3.1.4-.1.9-.6 1-.4.1-.9-.1-1-.6-.2-.8-.4-1.5-.7-2.3-.1-.4.2-.8.6-.9zm-62.9-51.8l2.4.3c.4.1.7.5.7.9-.1.4-.5.7-.9.7l-2.4-.3c-.4 0-.8-.4-.7-.9 0-.4.4-.7.9-.7zm6.2 23.6v67.5h-25.7v-67.5h25.7zm-13.5-23.9h2.4c.4 0 .8.4.8.8s-.4.8-.8.8h-2.4c-.4 0-.8-.4-.8-.8s.3-.8.8-.8zm-7.3.4l2.4-.2c.4 0 .8.3.9.7 0 .4-.3.8-.7.9l-2.4.2c-.4 0-.8-.3-.9-.7-.1-.5.3-.9.7-.9zm-7.2 1c.8-.2 1.6-.3 2.4-.4.4-.1.8.2.9.7.1.4-.2.8-.7.9-.7.1-1.5.2-2.3.4-.4.1-.9-.2-.9-.6s.2-.9.6-1zm-51 37.9l1.2-2.1c.2-.4.7-.5 1.1-.3.4.2.5.7.3 1.1l-1.2 2.1c-.2.4-.7.5-1.1.3-.3-.2-.5-.7-.3-1.1zm-3.1 6.6c.3-.8.6-1.5 1-2.2.2-.4.7-.6 1.1-.4.4.2.6.7.4 1.1l-.9 2.2c-.2.4-.6.6-1 .4-.6-.2-.8-.7-.6-1.1zm-2.4 6.9c.2-.8.5-1.6.7-2.3.1-.4.6-.6 1-.5.4.1.6.6.5 1-.3.8-.5 1.5-.7 2.3-.1.4-.6.7-1 .5-.4-.1-.7-.6-.5-1zm-1.3 4.7c.1-.4.5-.7 1-.6.4.1.7.5.6 1l-.5 2.3c-.1.4-.5.7-.9.6-.4-.1-.7-.5-.6-.9.1-.8.2-1.6.4-2.4zm-1.3 7.2c.1-.4.5-.7.9-.7.4.1.7.5.7.9l-.3 2.4c0 .4-.4.8-.9.7-.4 0-.8-.4-.7-.9l.3-2.4zm-.6 9.6v-2.4c0-.4.4-.8.8-.8s.8.4.8.8v2.4c0 .4-.4.8-.8.8-.4.1-.8-.3-.8-.8zm.4 7.4l-.2-2.4c0-.4.3-.8.7-.8.4 0 .8.3.8.7l.2 2.4c0 .4-.3.8-.7.9-.4-.1-.8-.4-.8-.8zm1 7.2c-.2-.8-.3-1.6-.4-2.4-.1-.4.2-.8.7-.9.4-.1.8.2.9.7.1.7.2 1.5.4 2.3.1.4-.2.9-.6.9-.5.1-.9-.2-1-.6zm2.8 7.6c-.4.1-.9-.1-1-.5-.2-.8-.5-1.6-.7-2.3-.1-.4.1-.9.6-1 .4-.1.9.1 1 .6.2.8.4 1.5.7 2.3.1.3-.2.7-.6.9zm2.5 6.7c-.4.2-.9 0-1-.4-.3-.7-.6-1.5-.9-2.3-.2-.4.1-.9.5-1 .4-.2.9.1 1 .5l.9 2.2c.1.4-.1.9-.5 1zm3.2 6.5c-.4.2-.9.1-1.1-.3-.4-.7-.8-1.4-1.1-2.2-.2-.4 0-.9.4-1.1.4-.2.9 0 1.1.4l1.1 2.1c.1.4-.1.9-.4 1.1zm3.7 6.1c-.4.2-.9.1-1.1-.2-.5-.7-.9-1.4-1.3-2-.2-.4-.1-.9.3-1.1.4-.2.9-.1 1.1.3.4.7.8 1.3 1.3 2 .2.3.1.8-.3 1zm.2-81.8c-.2.4-.7.5-1.1.2-.4-.2-.5-.7-.2-1.1l1.4-2c.3-.4.8-.4 1.1-.2.4.3.4.8.2 1.1-.5.6-1 1.3-1.4 2zm4.2 87.6c-.3.3-.8.2-1.1-.1l-1.5-1.9c-.3-.3-.2-.9.1-1.1.3-.3.9-.2 1.1.1.5.6 1 1.2 1.5 1.9.3.3.2.8-.1 1.1zm1.6-95.2l-1.5 1.8c-.3.3-.8.4-1.1.1-.3-.3-.4-.8-.1-1.1.5-.6 1-1.2 1.6-1.9.3-.3.8-.4 1.1-.1.3.4.3.9 0 1.2zm3.3 100.5c-.3.3-.8.3-1.1 0-.6-.6-1.1-1.2-1.7-1.7-.3-.3-.3-.8 0-1.1.3-.3.8-.3 1.1 0 .5.6 1.1 1.1 1.7 1.7.3.2.3.7 0 1.1zm1.7-105.6c-.6.5-1.1 1.1-1.7 1.7-.3.3-.8.3-1.1 0-.3-.3-.3-.8 0-1.1.6-.6 1.2-1.1 1.7-1.7.3-.3.8-.3 1.1 0 .3.3.3.8 0 1.1zm3.7 110.3c-.3.3-.8.4-1.1.1-.6-.5-1.2-1-1.9-1.6-.3-.3-.4-.8-.1-1.1s.8-.4 1.1-.1l1.8 1.5c.4.4.5.9.2 1.2zm1.7-114.9c-.6.5-1.2 1-1.9 1.5-.3.3-.8.2-1.1-.1s-.2-.8.1-1.1l1.9-1.5c.3-.3.9-.2 1.1.1s.2.8-.1 1.1zm4.1 119.2c-.2.4-.7.5-1.1.2l-2-1.4c-.4-.3-.4-.8-.2-1.1s.8-.4 1.1-.2c.6.5 1.3.9 2 1.4.4.2.5.7.2 1.1zm1.7-123.3l-2 1.3c-.4.2-.9.1-1.1-.2-.2-.4-.1-.9.2-1.1.7-.5 1.4-.9 2-1.3.4-.2.9-.1 1.1.3.3.3.2.8-.2 1zm4.6 126.9c-.2.4-.7.5-1.1.3l-2.1-1.2c-.4-.2-.5-.7-.3-1.1.2-.4.7-.5 1.1-.3l2.1 1.2c.3.3.5.7.3 1.1zm1.7-130.4l-2.1 1.1c-.4.2-.9.1-1.1-.3-.2-.4-.1-.9.3-1.1.7-.4 1.4-.8 2.2-1.1.4-.2.9 0 1.1.4.1.3 0 .8-.4 1zm4.8 133.4c-.2.4-.6.6-1 .4-.8-.3-1.5-.6-2.2-1-.4-.2-.6-.7-.4-1.1.2-.4.7-.6 1.1-.4l2.2.9c.3.4.5.8.3 1.2zm1.7-136.2l-2.2.9c-.4.2-.9 0-1-.4-.2-.4 0-.9.4-1 .7-.3 1.5-.6 2.3-.9.4-.2.9.1 1 .5.1.3-.1.7-.5.9zm5.2 138.6c-.1.4-.6.7-1 .5-.8-.2-1.6-.5-2.3-.7-.4-.1-.6-.6-.5-1 .1-.4.6-.6 1-.5.8.3 1.5.5 2.3.7.4.1.6.6.5 1zm1.6-140.8c-.8.2-1.5.4-2.3.7-.4.1-.9-.1-1-.5-.1-.4.1-.9.5-1 .8-.2 1.6-.5 2.3-.7.4-.1.9.1 1 .6.2.3-.1.8-.5.9zm4.4 143.1l-2.4-.5c-.4-.1-.7-.5-.6-1 .1-.4.5-.7 1-.6l2.3.5c.4.1.7.5.6.9 0 .5-.4.8-.9.7zm7.3 1.1l-2.4-.3c-.4-.1-.7-.5-.7-.9.1-.4.5-.7.9-.7l2.4.3c.4 0 .8.4.7.9-.1.4-.5.7-.9.7zm7.2.3h-2.4c-.4 0-.8-.4-.8-.8s.4-.8.8-.8h2.3c.4 0 .8.4.8.8.1.4-.2.8-.7.8zm7.3-.4l-2.4.2c-.4 0-.8-.3-.8-.7 0-.4.3-.8.7-.8l2.4-.2c.4 0 .8.3.9.7 0 .4-.3.8-.8.8zm7.2-1c-.8.2-1.6.3-2.4.4-.4.1-.8-.2-.9-.7-.1-.4.2-.8.7-.9.8-.1 1.6-.3 2.3-.4.4-.1.9.2.9.6.1.5-.1.9-.6 1zm-14-18.5c-8.8 0-15.9-7.2-15.9-15.9 0-8.8 7-15.9 15.9-15.9 8.8 0 15.9 7 15.9 15.9-.1 8.8-7.1 15.9-15.9 15.9zm16.9-125.8c-.1.4-.5.7-1 .6l-2.3-.5c-.4-.1-.7-.5-.6-.9.1-.4.5-.7.9-.6l2.4.5c.4 0 .7.4.6.9zm4.2 142.5c-.8.2-1.6.5-2.3.7-.4.1-.9-.1-1-.6-.1-.4.1-.9.6-1 .8-.2 1.5-.4 2.3-.7.4-.1.9.1 1 .5.1.5-.2 1-.6 1.1zm2.7-140.5c-.1.4-.6.6-1 .5-.8-.3-1.5-.5-2.3-.7-.4-.1-.7-.6-.5-1 .1-.4.6-.7 1-.5.8.2 1.6.5 2.3.7.4.1.6.6.5 1zm4.2 138.1c-.7.3-1.5.6-2.3.9-.4.2-.9-.1-1-.5-.2-.4.1-.9.5-1l2.2-.9c.4-.2.9 0 1 .4.2.4 0 .9-.4 1.1zm2.5-135.4c-.2.4-.7.6-1.1.4l-2.2-.9c-.4-.2-.6-.6-.4-1 .2-.4.6-.6 1-.4.8.3 1.5.6 2.2 1 .5 0 .7.5.5.9zm4 132.2c-.7.4-1.4.8-2.2 1.1-.4.2-.9 0-1.1-.4s0-.9.4-1.1l2.1-1.1c.4-.2.9-.1 1.1.3.3.5.1 1-.3 1.2zm2.4-128.8c-.2.4-.7.5-1.1.3l-2.1-1.2c-.4-.2-.5-.7-.3-1.1.2-.4.7-.5 1.1-.3l2.1 1.2c.4.2.5.7.3 1.1zm3.9 125.1c-.7.4-1.4.9-2 1.3-.4.2-.9.1-1.1-.3-.2-.4-.1-.9.3-1.1.7-.4 1.3-.8 2-1.3.4-.2.9-.1 1.1.2.1.5 0 .9-.3 1.2zm2.1-121.1c-.3.4-.8.4-1.1.2-.6-.5-1.3-.9-2-1.4-.4-.2-.5-.7-.2-1.1.2-.4.7-.5 1.1-.2l2 1.4c.4.2.4.7.2 1.1zm3.7 116.7l-1.9 1.5c-.3.3-.9.2-1.1-.1-.3-.3-.2-.9.1-1.1.6-.5 1.2-1 1.9-1.5.3-.3.8-.2 1.1.1.3.4.3.9-.1 1.1zm1.9-112.2c-.3.3-.8.4-1.1.1l-1.8-1.5c-.3-.3-.4-.8-.1-1.1.3-.3.8-.4 1.1-.1.6.5 1.2 1 1.9 1.6.3.2.3.7 0 1zm3.5 107.4c-.6.6-1.2 1.1-1.7 1.7-.3.3-.8.3-1.1 0-.3-.3-.3-.8 0-1.1.6-.5 1.1-1.1 1.7-1.7.3-.3.8-.3 1.1 0 .3.2.3.7 0 1.1zm1.6-102.3c-.3.3-.8.3-1.1 0-.5-.6-1.1-1.1-1.7-1.7-.3-.3-.3-.8 0-1.1.3-.3.8-.3 1.1 0 .6.6 1.1 1.2 1.7 1.7.4.3.4.8 0 1.1zm3.3 96.9c-.5.6-1 1.2-1.6 1.9-.3.3-.8.4-1.1.1-.3-.3-.4-.8-.1-1.1l1.5-1.8c.3-.3.8-.4 1.1-.1.5.1.5.6.2 1zm.2-91.5c-.5-.6-1-1.2-1.5-1.9-.3-.3-.2-.8.1-1.1.3-.3.8-.2 1.1.1l1.5 1.9c.3.3.2.9-.1 1.1-.3.3-.8.2-1.1-.1zm4.2 85.6l-1.4 2c-.3.4-.8.4-1.1.2-.4-.3-.4-.8-.2-1.1.5-.6.9-1.3 1.4-2 .2-.4.7-.5 1.1-.2.3.2.4.7.2 1.1zm-.1-79.8l-1.3-2c-.2-.4-.1-.9.2-1.1.4-.2.9-.1 1.1.2.5.7.9 1.4 1.3 2 .2.4.1.9-.3 1.1-.3.3-.8.2-1-.2zm3.8 73.5l-1.2 2.1c-.2.4-.7.5-1.1.3-.4-.2-.5-.7-.3-1.1l1.2-2.1c.2-.4.7-.5 1.1-.3s.5.8.3 1.1zm-.3-67.3l-1.1-2.1c-.2-.4-.1-.9.3-1.1.4-.2.9-.1 1.1.3.4.7.8 1.4 1.1 2.2.2.4 0 .9-.4 1.1-.4.2-.8 0-1-.4zm3.5 60.7c-.3.8-.6 1.5-1 2.2-.2.4-.7.6-1.1.4-.4-.2-.6-.7-.4-1.1l.9-2.2c.2-.4.6-.6 1-.4.5.3.7.7.6 1.1zm-.7-54.1l-.9-2.2c-.2-.4 0-.9.4-1 .4-.2.9 0 1 .4.3.7.6 1.5.9 2.3.2.4-.1.9-.5 1-.3.1-.7-.1-.9-.5zm3.1 47.3c-.2.8-.5 1.6-.7 2.3-.1.4-.6.6-1 .5-.4-.1-.6-.6-.5-1 .3-.8.5-1.5.7-2.3.1-.4.6-.7 1-.5.4.1.7.5.5 1zm1.3-4.7c-.1.4-.5.7-1 .6-.4-.1-.7-.5-.6-1l.5-2.3c.1-.4.5-.7.9-.6.4.1.7.5.6.9-.1.8-.2 1.6-.4 2.4zm1.3-7.2c-.1.4-.5.7-.9.7-.4-.1-.7-.5-.7-.9l.3-2.4c0-.4.4-.8.9-.7.4 0 .8.4.7.9l-.3 2.4zm-.3-6.5c-.4 0-.8-.4-.8-.8v-2.5c0-.4.4-.8.8-.8s.8.4.8.8v2.5c.1.5-.3.8-.8.8z"/><path fill="#CD9C2B" d="M77.5.8c42.4 0 76.7 34.3 76.7 76.7s-34.3 76.7-76.7 76.7c-42.4 0-76.7-34.3-76.7-76.7s34.3-76.7 76.7-76.7m-.1 4h2.4c.4 0 .8-.3.8-.8 0-.4-.3-.8-.8-.8h-2.4c-.4 0-.8.4-.8.8s.3.8.8.8m-7.2.4c.9-.1 1.6-.2 2.4-.2.4 0 .8-.4.7-.9 0-.4-.4-.7-.8-.7h-.1l-2.4.2c-.4 0-.8.4-.7.9.1.3.5.7.9.7m14.3-.1l2.4.3h.1c.4 0 .7-.3.8-.7.1-.4-.3-.8-.7-.9l-2.4-.3h-.1c-.4 0-.8.3-.8.7 0 .5.3.9.7.9m-21.4 1.1h.2c.7-.2 1.5-.3 2.2-.4.4-.1.7-.5.7-.9-.1-.4-.4-.7-.8-.7h-.1l-2.4.4c-.4.1-.7.5-.6.9 0 .5.4.7.8.7m28.5 0c.8.2 1.6.3 2.3.5h.2c.4 0 .7-.3.8-.6.1-.4-.2-.9-.6-1-.8-.2-1.6-.4-2.4-.5h-.2c-.4 0-.7.3-.8.6 0 .4.2.9.7 1m-35.5 1.8h.2c.8-.2 1.5-.4 2.3-.7.4-.1.7-.6.6-1-.1-.4-.4-.6-.8-.6h-.2c-.8.2-1.6.4-2.3.7-.4.1-.7.6-.5 1 0 .3.3.6.7.6m44.9.6c.3 0 .6-.2.8-.5.1-.4-.1-.9-.5-1-.8-.3-1.5-.5-2.3-.7h-.2c-.3 0-.7.2-.8.6-.1.4.1.9.5 1l2.3.7c.1-.1.1-.1.2-.1m-51.7 1.8c.1 0 .2 0 .3-.1l2.2-.9c.4-.2.6-.6.5-1-.1-.3-.4-.5-.7-.5-.1 0-.2 0-.3.1l-2.3.9c-.4.2-.6.6-.4 1 .1.3.4.5.7.5m55.9-.1l2.2.9.3.1c.3 0 .6-.2.7-.5.2-.4 0-.9-.4-1.1l-2.2-1-.3-.1c-.3 0-.6.2-.7.5-.2.5 0 1 .4 1.2m-62.4 3.2c.1 0 .3 0 .4-.1l2.1-1.1c.4-.2.6-.7.4-1.1-.1-.3-.4-.4-.7-.4-.1 0-.2 0-.4.1-.7.4-1.4.7-2.2 1.1-.4.2-.5.7-.3 1.1.1.2.4.4.7.4m68.9-.2l2.1 1.2c.1.1.3.1.4.1.3 0 .5-.1.7-.4.2-.4.1-.9-.3-1.1l-2.1-1.2c-.1-.1-.2-.1-.4-.1-.3 0-.6.2-.7.4-.2.4-.1.9.3 1.1m-75.1 3.9c.2 0 .3 0 .4-.1l2-1.3c.4-.2.5-.7.3-1.1-.2-.2-.4-.4-.7-.4-.1 0-.3 0-.4.1-.7.4-1.4.9-2 1.3-.4.2-.5.7-.2 1.1.1.3.3.4.6.4m83.6 1.3c.2 0 .5-.1.7-.3.3-.4.2-.9-.2-1.1l-2-1.4c-.1-.1-.3-.1-.4-.1-.3 0-.5.1-.7.4-.2.4-.1.9.2 1.1.7.4 1.3.9 2 1.4.1-.1.3 0 .4 0m-89.4 3c.2 0 .4-.1.5-.2.6-.5 1.2-1 1.9-1.5.3-.3.4-.8.1-1.1-.2-.2-.4-.3-.6-.3-.2 0-.3.1-.5.2l-1.9 1.5c-.3.3-.4.8-.1 1.1.2.2.4.3.6.3m95.1 1.5c.2 0 .4-.1.6-.3.3-.3.3-.8-.1-1.1-.6-.5-1.2-1.1-1.9-1.6-.1-.1-.3-.2-.5-.2s-.5.1-.6.3c-.3.3-.2.8.1 1.1l1.8 1.5c.2.2.4.3.6.3m-100.4 3.4c.2 0 .4-.1.6-.2l1.7-1.7c.3-.3.3-.8 0-1.1-.2-.2-.4-.3-.6-.3-.2 0-.4.1-.5.2-.6.6-1.2 1.1-1.7 1.7-.3.3-.3.8 0 1.1.1.2.3.3.5.3m105.6 1.6c.2 0 .4-.1.5-.2.3-.3.3-.8 0-1.1-.6-.6-1.1-1.2-1.7-1.7-.2-.2-.4-.2-.6-.2-.2 0-.4.1-.6.2-.3.3-.3.8 0 1.1l1.7 1.7c.3.1.5.2.7.2m-65.9 66.5h25.6v-67.4h-25.6v67.4m-44.6-62.8c.2 0 .5-.1.6-.3l1.5-1.8c.3-.3.3-.8-.1-1.1-.2-.1-.3-.2-.5-.2s-.4.1-.6.3c-.5.6-1.1 1.2-1.6 1.9-.3.3-.2.8.1 1.1.3.1.5.1.6.1m113-.4c.5.6 1 1.2 1.5 1.9.2.2.4.3.6.3.2 0 .3-.1.5-.2.3-.3.4-.8.1-1.1l-1.5-1.9c-.2-.2-.4-.3-.6-.3-.2 0-.4.1-.5.2-.3.3-.3.8-.1 1.1m-117.3 6.2c.3 0 .5-.1.7-.4.4-.7.9-1.3 1.4-2 .3-.4.2-.9-.2-1.1-.1-.1-.3-.1-.5-.1s-.5.1-.7.3l-1.4 2c-.2.4-.1.9.2 1.1.2.2.4.2.5.2m121.6-.5l1.3 2c.2.2.4.4.7.4.1 0 .3 0 .4-.1.4-.2.5-.7.3-1.1-.4-.7-.9-1.4-1.3-2-.2-.2-.4-.4-.7-.4-.2 0-.3 0-.4.1-.4.3-.5.8-.3 1.1m-125.3 6.7c.3 0 .6-.2.7-.4l1.2-2.1c.2-.4.1-.9-.3-1.1-.1-.1-.3-.1-.4-.1-.3 0-.5.1-.7.4l-1.2 2.1c-.2.4-.1.9.3 1.1.2.1.3.1.4.1m129-.6l1.1 2.1c.1.3.4.4.7.4.1 0 .2 0 .4-.1.4-.2.6-.7.4-1.1-.4-.7-.7-1.4-1.1-2.2-.1-.3-.4-.4-.7-.4-.1 0-.3 0-.4.1-.5.3-.6.8-.4 1.2m-132.1 7.1c.3 0 .6-.2.7-.5l.9-2.2c.2-.4 0-.9-.4-1.1l-.3-.1c-.3 0-.6.2-.7.5l-1 2.2c-.2.4 0 .9.4 1 .2.2.3.2.4.2m135.1-.6l.9 2.2c.1.3.4.5.7.5.1 0 .2 0 .3-.1.4-.2.6-.6.5-1l-.9-2.3c-.1-.3-.4-.5-.7-.5-.1 0-.2 0-.3.1-.4.2-.6.6-.5 1.1m-137.5 7.4c.3 0 .7-.2.8-.6l.7-2.3c.1-.4-.1-.9-.5-1h-.3c-.3 0-.6.2-.8.5-.3.8-.5 1.5-.7 2.3-.1.4.1.9.5 1 .2.1.2.1.3.1m141.4 2.1h.2c.4-.1.7-.6.6-1-.2-.8-.4-1.6-.7-2.3-.1-.3-.4-.6-.8-.6h-.2c-.4.1-.7.6-.5 1 .2.8.4 1.5.7 2.3 0 .4.3.6.7.6m-143.1 4.9c.4 0 .7-.3.8-.6.2-.8.3-1.6.5-2.3.1-.4-.2-.9-.6-1h-.2c-.4 0-.7.2-.8.6-.2.8-.4 1.6-.5 2.4-.1.4.2.9.6.9h.2m144.6 2.2h.1c.4-.1.7-.5.7-.9l-.4-2.4c-.1-.4-.4-.6-.8-.6h-.2c-.4.1-.7.5-.6.9.2.8.3 1.6.4 2.3.1.4.4.7.8.7m-145.7 5c.4 0 .8-.3.8-.7l.3-2.4c.1-.4-.3-.8-.7-.9h-.1c-.4 0-.7.3-.8.7l-.3 2.4c0 .4.3.8.8.9m146.5 2.1c.5 0 .8-.4.8-.9l-.2-2.4c0-.4-.4-.7-.8-.7h-.1c-.4 0-.8.4-.7.9l.2 2.4c.1.4.4.7.8.7m-146.8 5.1c.4 0 .8-.4.8-.8v-2.4c0-.4-.3-.8-.8-.8-.4 0-.8.3-.8.8v2.5c0 .3.4.7.8.7m147 2.3c.4 0 .8-.3.8-.8v-2.5c0-.4-.4-.8-.8-.8s-.8.4-.8.8v2.5c0 .4.3.8.8.8m-146.7 4.9c.5 0 .8-.4.8-.9l-.1-2.4c0-.4-.4-.7-.8-.7h-.1c-.4 0-.8.4-.7.8l.2 2.4c0 .5.3.8.7.8m145.6-1l-.3 2.4c-.1.4.3.8.7.9h.1c.4 0 .7-.3.8-.7l.3-2.4c0-.4-.3-.8-.7-.9h-.1c-.5 0-.8.3-.8.7m-144.5 8.1h.2c.4-.1.7-.5.6-.9-.2-.8-.3-1.6-.4-2.4-.1-.4-.4-.7-.8-.7h-.1c-.4.1-.7.5-.7.9l.4 2.4c.1.4.4.7.8.7m143.4-1c-.2.8-.3 1.6-.5 2.3-.1.4.2.9.6 1h.2c.4 0 .7-.2.8-.6.2-.8.4-1.6.5-2.4.1-.4-.2-.9-.6-.9h-.2c-.4-.1-.7.2-.8.6m-141.6 8h.2c.4-.1.7-.6.5-1-.2-.8-.4-1.5-.7-2.3-.1-.4-.4-.6-.8-.6h-.2c-.4.1-.7.6-.6 1 .2.8.4 1.6.7 2.3.2.4.5.6.9.6m139.9 2.2c.3 0 .6-.2.8-.5.3-.8.5-1.5.7-2.3.1-.4-.1-.9-.5-1h-.2c-.3 0-.7.2-.8.6l-.7 2.3c-.1.4.1.9.5 1 .1-.1.1-.1.2-.1m-69.1 30c8.8 0 15.9-7.2 15.9-15.9 0-8.8-7-15.9-15.9-15.9-8.8 0-15.9 7-15.9 15.9 0 8.8 7.1 15.9 15.9 15.9m-68.4-25.4c.1 0 .2 0 .3-.1.4-.2.6-.6.4-1l-.9-2.2c-.1-.3-.4-.5-.7-.5-.1 0-.2 0-.3.1-.4.2-.6.6-.5 1l.9 2.3c.2.2.5.4.8.4m134.9 2.1c.3 0 .6-.2.7-.5l1-2.2c.2-.4 0-.9-.4-1l-.3-.1c-.3 0-.6.2-.7.5l-.9 2.2c-.2.4 0 .9.4 1.1h.2m-131.8 4.4c.1 0 .3 0 .4-.1.4-.2.5-.7.3-1.1l-1.1-2.1c-.1-.3-.4-.4-.7-.4-.1 0-.2 0-.4.1-.4.2-.6.7-.4 1.1.4.7.7 1.4 1.1 2.2.2.1.5.3.8.3m128.5 2.1c.3 0 .5-.1.7-.4l1.2-2.1c.2-.4.1-.9-.3-1.1-.1-.1-.2-.1-.4-.1-.3 0-.6.2-.7.4l-1.2 2.1c-.2.4-.1.9.3 1.1.1 0 .2.1.4.1m-124.8 4.1c.2 0 .3 0 .4-.1.4-.2.5-.7.2-1.1l-1.3-2c-.2-.2-.4-.4-.7-.4-.1 0-.3 0-.4.1-.4.2-.5.7-.3 1.1.4.7.9 1.4 1.3 2 .3.2.5.4.8.4m120.8 1.9c.2 0 .5-.1.6-.3l1.4-2c.2-.4.1-.9-.2-1.1-.1-.1-.3-.1-.4-.1-.3 0-.5.1-.7.4-.4.7-.9 1.3-1.4 2-.3.4-.2.9.2 1.1h.5m-116.5 3.8c.2 0 .4-.1.5-.2.3-.3.4-.8.1-1.1-.5-.6-1-1.2-1.5-1.9-.2-.2-.4-.3-.6-.3-.2 0-.3.1-.5.2-.3.3-.4.8-.1 1.1l1.5 1.9c.1.2.4.3.6.3m112.1 1.9c.2 0 .4-.1.6-.3.5-.6 1.1-1.2 1.6-1.9.3-.3.2-.8-.1-1.1-.1-.1-.3-.2-.5-.2s-.5.1-.6.3l-1.5 1.8c-.3.3-.3.8.1 1.1 0 .2.2.3.4.3m-107.3 3.5c.2 0 .4-.1.6-.2.3-.3.3-.8 0-1.1l-1.7-1.7c-.2-.2-.4-.3-.6-.3-.2 0-.4.1-.5.2-.3.3-.3.8 0 1.1.6.6 1.1 1.2 1.7 1.7.1.2.3.3.5.3m102.2 1.7c.2 0 .4-.1.5-.2.6-.6 1.2-1.1 1.7-1.7.3-.3.3-.8 0-1.1-.2-.2-.4-.2-.6-.2-.2 0-.4.1-.6.2l-1.7 1.7c-.3.3-.3.8 0 1.1.3.1.5.2.7.2m-96.8 3.1c.2 0 .5-.1.6-.3.3-.3.2-.8-.1-1.1l-1.8-1.5c-.2-.1-.3-.2-.5-.2s-.4.1-.6.3c-.3.3-.3.8.1 1.1.6.5 1.2 1.1 1.9 1.6 0 .1.2.1.4.1m91.3 1.5c.2 0 .3-.1.5-.2l1.9-1.5c.3-.3.4-.8.1-1.1-.2-.2-.4-.3-.6-.3-.2 0-.4.1-.5.2-.6.5-1.2 1-1.9 1.5-.3.3-.4.8-.1 1.1.2.2.4.3.6.3m-85.5 2.8c.3 0 .5-.1.7-.4.2-.4.1-.9-.2-1.1-.7-.4-1.3-.9-2-1.4-.1-.1-.3-.1-.5-.1s-.5.1-.6.3c-.3.4-.2.9.2 1.1l2 1.4c.1.2.2.2.4.2m79.6 1.3c.1 0 .3 0 .4-.1.7-.4 1.4-.9 2-1.3.4-.2.5-.7.2-1.1-.2-.2-.4-.4-.7-.4-.2 0-.3 0-.4.1l-2 1.3c-.4.2-.5.7-.3 1.1.3.3.6.4.8.4m-73.4 2.5c.3 0 .6-.2.7-.4.2-.4.1-.9-.3-1.1l-2.1-1.2c-.1-.1-.3-.1-.4-.1-.3 0-.5.1-.7.4-.2.4-.1.9.3 1.1l2.1 1.2c.1 0 .2.1.4.1m68.9-1.6l-2.1 1.1c-.4.2-.6.7-.4 1.1.1.3.4.4.7.4.1 0 .2 0 .4-.1.7-.4 1.4-.7 2.2-1.1.4-.2.5-.7.3-1.1-.1-.3-.4-.4-.7-.4-.2 0-.3.1-.4.1m-62.4 4.6c.3 0 .6-.2.7-.5.2-.4 0-.9-.4-1l-2.2-.9-.3-.1c-.3 0-.6.2-.7.5-.2.4 0 .9.4 1.1l2.2 1c.1-.1.2-.1.3-.1m54 .9c.1 0 .2 0 .3-.1l2.3-.9c.4-.2.6-.6.4-1-.1-.3-.4-.5-.7-.5-.1 0-.2 0-.3.1l-2.2.9c-.4.2-.6.6-.5 1 .1.3.4.5.7.5m-47.2 1.6c.3 0 .7-.2.8-.6.1-.4-.1-.9-.5-1l-2.3-.7h-.3c-.3 0-.6.2-.8.5-.1.4.1.9.5 1 .8.3 1.5.5 2.3.7.1.1.2.1.3.1m40.4.6h.2c.8-.2 1.6-.4 2.3-.7.4-.1.7-.6.5-1-.1-.3-.4-.6-.8-.6h-.2c-.8.2-1.5.4-2.3.7-.4.1-.7.6-.6 1 .2.4.5.6.9.6m-33.4 1.1c.4 0 .7-.3.8-.6.1-.4-.2-.9-.6-.9-.8-.2-1.6-.3-2.3-.5h-.2c-.4 0-.7.2-.8.6-.1.4.2.9.6 1 .8.2 1.6.4 2.4.5 0-.1 0-.1.1-.1m26.3.4h.1l2.4-.4c.4-.1.7-.5.6-.9-.1-.4-.4-.6-.8-.6h-.2c-.8.2-1.6.3-2.3.4-.4.1-.7.5-.7.9.2.4.5.6.9.6m-19.2.7c.4 0 .8-.3.8-.7 0-.4-.3-.8-.7-.9l-2.4-.3h-.1c-.4 0-.7.3-.8.7-.1.4.3.8.7.9.8.1 1.6.2 2.5.3m12 .1c.9-.1 1.7-.1 2.5-.2.4 0 .8-.4.7-.9 0-.4-.4-.7-.8-.7h-.1l-2.4.2c-.4 0-.8.4-.7.8.1.5.4.8.8.8m-4.8.2c.5 0 .8-.4.8-.8s-.4-.8-.8-.8h-2.3c-.4 0-.8.3-.8.8 0 .4.3.8.8.8h2.3m0-151.8c-42.7 0-77.5 34.8-77.5 77.5s34.8 77.5 77.5 77.5 77.5-34.8 77.5-77.5-34.8-77.5-77.5-77.5zm2.3 4h-.6.6zm6.3.5l-.7-.1.7.1zm-21.9.7c.4-.1.8-.2 1.2-.2-.4 0-.8.1-1.2.2zm36.8 2.6c-.8-.3-1.5-.5-2.3-.7.8.2 1.6.5 2.3.7zm4.5 1.7l1.2.5c-.3-.1-.7-.3-1.2-.5zm-62.7 3.2l1-.6-1 .6zm71.4 1.1l-.8-.4c.3.1.5.2.8.4zm-77.6 2.6l2-1.3-2 1.3zm83.6 1.3c-.3-.2-.6-.5-1-.7.4.2.7.5 1 .7zm-89.4 3c.6-.5 1.2-1 1.9-1.5l-1.9 1.5zm95.1 1.5c-.6-.5-1.2-1-1.8-1.6.6.5 1.2 1 1.8 1.6zm-100.4 3.4c.4-.4.8-.8 1.3-1.2-.5.3-.9.8-1.3 1.2zm105.6 1.6c-.3-.3-.6-.6-.9-1l.9 1zm-65.1.7h24v65.9h-24v-65.9zm69.8 4.8l-1.3-1.7c.4.6.8 1.1 1.3 1.7zm4.1 5.9c-.4-.7-.9-1.4-1.3-2 .4.6.9 1.3 1.3 2zm-126.3 2.6c.1-.1.1-.2.2-.4-.1.1-.1.2-.2.4zm-6 13.6l.3-.9-.3.9zm140.5 2.3l-.3-1.1.3 1.1zm-142.7 6.1l.5-2.4c-.2.9-.4 1.7-.5 2.4zm-1.1 7.2l.3-2.4-.3 2.4zm146.4.6c0-.3-.1-.6-.1-.8.1.2.1.5.1.8zm-.3 16.1l.3-2.4-.3 2.4zm-145.4 2.9c0-.1 0-.3-.1-.4.1.1.1.2.1.4zm144.6 1.8l-.5 2.4c.2-.8.4-1.6.5-2.4zm-142.9 5.4l-.2-.6.2.6zm71.3 33.9c-8.3 0-15.1-6.8-15.1-15.1s6.8-15.1 15.1-15.1 15.1 6.8 15.1 15.1c-.1 8.4-6.8 15.1-15.1 15.1zm-69-26.9l-.3-.7c.1.2.2.4.3.7zm136.2 1.9l.2-.5c0 .2-.1.4-.2.5zm-132.5 6.1c-.3-.5-.5-1-.8-1.6.2.6.5 1.1.8 1.6zm3.7 6.2c-.4-.5-.7-1.1-1.1-1.7l1.1 1.7zm4.3 5.7l-1.5-1.9c.5.7 1 1.3 1.5 1.9zm112.1 1.9l1.6-1.8c-.6.6-1.1 1.2-1.6 1.8zm-107.3 3.5l-1.1-1.1c.4.3.8.7 1.1 1.1zm102.2 1.7c.4-.4.8-.8 1.3-1.2-.4.4-.8.8-1.3 1.2zm-5.5 4.6l1.3-1c-.4.4-.8.7-1.3 1zm-86 2.5c-.5-.3-.9-.6-1.4-1 .4.3.9.7 1.4 1zm80.1 1.6c.7-.4 1.4-.9 2-1.3-.6.5-1.3.9-2 1.3zm-73.9 2.2l-1.6-.9c.5.3 1 .6 1.6.9zm69.8.2l-1.3.7c.4-.2.8-.4 1.3-.7zm-62.8 3.1c-.2-.1-.4-.2-.7-.3.2.2.5.2.7.3zm55.5.3l.7-.3c-.2.1-.4.2-.7.3zm-50.2 1.7c-.3-.1-.5-.2-.8-.2.3 0 .5.1.8.2zm43.1.8l1.1-.3-1.1.3zm-35.1 1.3l-1.8-.4c.5.1 1.2.3 1.8.4zm7.6 1.2l-1.7-.2c.6 0 1.2.1 1.7.2zm13.4 0l1-.1c-.3.1-.6.1-1 .1zm-7.3.3h-1.2 1.2z"/></svg>