<svg xmlns="http://www.w3.org/2000/svg" width="155" height="155" viewBox="0 0 155 155"><path fill="#4CA364" d="M77.5 1.6c-41.9 0-75.9 34-75.9 75.9s34 75.9 75.9 75.9c41.9 0 75.9-34 75.9-75.9s-34-75.9-75.9-75.9zm73.2 68.5l.2 2.4c0 .4-.3.8-.7.8-.4 0-.8-.3-.8-.7-.1-.8-.1-1.6-.2-2.3 0-.4.3-.8.7-.9.4 0 .7.3.8.7zm-1.1-7.1c.2.8.3 1.6.4 2.4.1.4-.2.8-.7.9-.4.1-.8-.2-.9-.7l-.4-2.3c-.1-.4.2-.8.6-.9.5-.1.9.2 1 .6zm-2.7-7.5c.4-.1.9.1 1 .5l.7 2.3c.1.4-.1.9-.6 1-.4.1-.9-.1-1-.6l-.6-2.3c-.2-.3.1-.8.5-.9zm-42.4-45.6c.2-.4.6-.6 1-.4.7.3 1.5.6 2.2 1 .4.2.6.6.4 1-.2.4-.6.6-1 .4-.7-.3-1.4-.6-2.2-.9-.4-.2-.5-.7-.4-1.1zm-6.7-2.3c.1-.4.6-.7 1-.5l2.3.7c.4.1.6.6.5 1-.1.4-.6.6-1 .5-.8-.3-1.6-.5-2.3-.7-.4-.1-.7-.6-.5-1zm-6.1-2.3l2.4.5c.4.1.7.5.6.9-.1.4-.5.7-.9.6l-2.4-.4c-.4-.1-.7-.5-.6-.9.1-.5.5-.8.9-.7zm-7.1-1l2.4.3c.4.1.7.5.7.9-.1.4-.5.7-.9.7-.8-.2-1.6-.3-2.4-.3-.4 0-.8-.4-.7-.9.1-.4.5-.7.9-.7zm-7.2-.3h2.4c.4 0 .8.4.8.8s-.4.8-.8.8h-2.3000000000000003c-.4 0-.8-.4-.8-.8-.1-.5.3-.8.7-.8zm-7.2.3l2.4-.2c.4 0 .8.3.8.7 0 .4-.3.8-.7.8-.8.1-1.6.1-2.3.2-.4 0-.8-.3-.9-.7-.1-.4.2-.7.7-.8zm-7.2 1.1c.8-.2 1.6-.3 2.4-.4.4-.1.8.2.9.7s-.2.8-.7.9l-2.3.4c-.4.1-.8-.2-.9-.6-.1-.5.2-.9.6-1zm13.8 16.2l14.8 29.7h-5.6l16.7 33.4h-9.3l16.7 33.4h-26v19.3h-14.2v-19.4h-26.5l16.7-33.4h-9.3l16.7-33.4h-5.6l14.9-29.6zm-20.8-14.5l2.3-.7c.4-.1.9.1 1 .6.1.4-.1.9-.6 1l-2.3.6c-.4.1-.9-.1-1-.5 0-.4.2-.8.6-1zm-6.7 2.5c.7-.3 1.4-.6 2.2-.9.4-.2.9.1 1 .5s-.1.9-.5 1l-2.2.9c-.4.2-.9 0-1-.4-.1-.5.1-1 .5-1.1zm-6.5 3.1l2.1-1.1c.4-.2.9 0 1.1.4.2.4 0 .9-.4 1.1-.7.3-1.4.7-2.1 1.1-.4.2-.9.1-1.1-.3-.2-.6 0-1 .4-1.2zm-30.2 30.2l1.2-2.1c.2-.4.7-.5 1.1-.3.4.2.5.7.3 1.1-.4.7-.8 1.4-1.1 2.1-.2.4-.7.5-1.1.3-.5-.3-.6-.7-.4-1.1zm-3.1 6.5c.3-.7.6-1.5 1-2.2.2-.4.6-.6 1-.4.4.2.6.6.4 1-.3.7-.6 1.4-.9 2.2-.2.4-.6.6-1 .4-.5-.1-.7-.6-.5-1zm-2.4 6.8l.7-2.3c.1-.4.6-.6 1-.5.4.1.6.6.5 1-.3.7-.5 1.5-.7 2.2-.1.4-.6.7-1 .5-.4 0-.6-.5-.5-.9zm-1.3 4.7c.1-.4.5-.7.9-.6.4.1.7.5.6.9-.1.8-.3 1.6-.4 2.3-.1.5-.5.7-.9.7-.4-.1-.7-.5-.6-.9.1-.9.3-1.6.4-2.4zm-1.2 7.1c.1-.4.5-.7.9-.7.4.1.7.5.7.9-.2.8-.3 1.5-.3 2.3 0 .4-.4.8-.9.7-.4 0-.8-.4-.7-.9.1-.7.2-1.5.3-2.3zm-.6 9.5v-2.3c0-.4.4-.8.8-.8s.8.4.8.8v2.4c0 .4-.4.8-.8.8-.5 0-.8-.4-.8-.9zm.3 7.3l-.2-2.4c0-.4.3-.8.7-.8.4 0 .8.3.8.7.1.8.1 1.6.2 2.3 0 .4-.3.8-.7.9-.4 0-.7-.3-.8-.7zm1.1 7.1c-.2-.8-.3-1.6-.4-2.4-.1-.4.2-.8.7-.9.4-.1.8.2.9.7l.4 2.3c0 .4-.3.9-.7.9-.4.1-.8-.2-.9-.6zm2.7 7.5c-.4.1-.9-.1-1-.5l-.7-2.3c-.1-.4.1-.9.6-1 .4-.1.9.1 1 .6l.6 2.3c.2.4-.1.8-.5.9zm2.5 6.7c-.4.2-.9 0-1-.4l-.9-2.2c-.2-.4.1-.9.5-1 .4-.2.9.1 1 .5l.9 2.2c.1.3-.1.8-.5.9zm3.1 6.4c-.4.2-.9.1-1.1-.3l-1.1-2.1c-.2-.4 0-.9.4-1.1.4-.2.9 0 1.1.4.3.7.7 1.4 1.1 2.1.1.3 0 .8-.4 1zm3.8 6.1c-.4.2-.9.1-1.1-.2l-1.3-2c-.2-.4-.1-.9.3-1.1.4-.2.9-.1 1.1.3.4.7.8 1.3 1.3 2 .1.3 0 .8-.3 1zm.1-81c-.2.4-.7.5-1.1.2-.4-.2-.5-.7-.2-1.1.4-.7.9-1.3 1.4-2 .3-.4.7-.4 1.1-.2.4.3.4.7.2 1.1l-1.4 2zm4.2 86.7c-.3.3-.8.2-1.1-.1-.5-.6-1-1.2-1.5-1.9-.3-.3-.2-.8.1-1.1.3-.3.8-.2 1.1.1l1.5 1.8c.3.4.2.9-.1 1.2zm1.6-94.2l-1.5 1.8c-.3.3-.8.4-1.1.1-.3-.3-.4-.8-.1-1.1.5-.6 1-1.2 1.6-1.8.3-.3.8-.4 1.1-.1.2.3.2.8 0 1.1zm3.2 99.4c-.3.3-.8.3-1.1 0l-1.7-1.7c-.3-.3-.3-.8 0-1.1.3-.3.8-.3 1.1 0l1.6 1.7c.4.3.4.8.1 1.1zm1.7-104.5l-1.7 1.6c-.3.3-.8.3-1.1 0-.3-.3-.3-.8 0-1.1l1.7-1.7c.3-.3.8-.3 1.1 0 .3.4.3.9 0 1.2zm3.7 109.3c-.3.3-.8.4-1.1.1-.6-.5-1.2-1-1.8-1.6-.3-.3-.4-.8-.1-1.1.3-.3.8-.4 1.1-.1l1.8 1.5c.3.3.3.8.1 1.2zm1.6-113.9l-1.8 1.5c-.3.3-.8.2-1.1-.1s-.2-.8.1-1.1c.6-.5 1.2-1 1.9-1.5.3-.3.8-.2 1.1.1.3.4.2.9-.2 1.1zm4.2 118.1c-.2.4-.7.5-1.1.2-.7-.4-1.3-.9-2-1.4-.4-.3-.4-.7-.2-1.1.3-.4.7-.4 1.1-.2.6.5 1.3.9 1.9 1.3.4.3.5.8.3 1.2zm1.6-122.1c-.7.4-1.3.8-2 1.3-.4.2-.9.1-1.1-.2-.2-.4-.1-.9.2-1.1l2-1.3c.4-.2.9-.1 1.1.3.3.3.2.8-.2 1zm4.5 125.7c-.2.4-.7.5-1.1.3l-2.1-1.2c-.4-.2-.5-.7-.3-1.1.2-.4.7-.5 1.1-.3.7.4 1.4.8 2.1 1.1.4.3.5.8.3 1.2zm6.5 3c-.2.4-.6.6-1 .4-.7-.3-1.5-.6-2.2-1-.4-.2-.6-.6-.4-1 .2-.4.6-.6 1-.4.7.3 1.4.6 2.2.9.4.2.6.6.4 1.1zm6.8 2.3c-.1.4-.6.7-1 .5l-2.3-.7c-.4-.1-.6-.6-.5-1 .1-.4.6-.6 1-.5.7.3 1.5.5 2.2.7.5.1.7.6.6 1zm6 2.3l-2.4-.5c-.4-.1-.7-.5-.6-.9.1-.4.5-.7.9-.6l2.3.5c.4.1.7.5.6.9 0 .4-.4.6-.8.6zm7.1 1l-2.4-.3c-.4-.1-.7-.5-.7-.9.1-.4.5-.7.9-.7.8.1 1.6.2 2.3.3.4 0 .8.4.7.9.1.4-.3.7-.8.7zm7.2.3h-2.4c-.4 0-.8-.4-.8-.8s.4-.8.8-.8h2.3c.4 0 .8.4.8.8.1.5-.2.8-.7.8zm7.2-.3l-2.4.2c-.4 0-.8-.3-.8-.7 0-.4.3-.8.7-.8.8-.1 1.6-.1 2.3-.2.4 0 .8.3.9.7.1.4-.2.8-.7.8zm7.2-1.1c-.8.2-1.6.3-2.4.4-.4.1-.8-.2-.9-.7-.1-.4.2-.8.7-.9l2.3-.4c.4-.1.8.2.9.6.1.5-.2 1-.6 1zm7-1.7l-2.3.7c-.4.1-.9-.1-1-.6-.1-.4.1-.9.6-1l2.3-.6c.4-.1.9.1 1 .5 0 .4-.2.9-.6 1zm6.8-2.4l-2.2.9c-.4.2-.9-.1-1-.5-.2-.4.1-.9.5-1l2.2-.9c.4-.2.9 0 1 .4.1.4-.1.9-.5 1.1zm6.5-3.1l-2.1 1.1c-.4.2-.9 0-1.1-.4-.2-.4 0-.9.4-1.1.7-.3 1.4-.7 2.1-1.1.4-.2.9-.1 1.1.3.1.5 0 1-.4 1.2zm2.3-127.6c-.2.4-.7.5-1.1.3-.7-.4-1.4-.8-2.1-1.1-.4-.2-.5-.7-.3-1.1.2-.4.7-.5 1.1-.3l2.1 1.2c.4.2.5.6.3 1zm3.9 123.9l-2 1.3c-.4.2-.9.1-1.1-.3-.2-.4-.1-.9.3-1.1.7-.4 1.3-.8 2-1.3.4-.2.9-.1 1.1.2.1.4 0 .9-.3 1.2zm2-119.9c-.3.4-.7.4-1.1.2-.6-.5-1.3-.9-1.9-1.3-.4-.2-.5-.7-.2-1.1.2-.4.7-.5 1.1-.2.7.4 1.3.9 2 1.4.3.1.4.6.1 1zm3.7 115.6c-.6.5-1.2 1-1.9 1.5-.3.3-.8.2-1.1-.1-.3-.3-.2-.8.1-1.1l1.8-1.5c.3-.3.8-.2 1.1.1s.4.8 0 1.1zm1.9-111.1c-.3.3-.8.4-1.1.1l-1.8-1.5c-.3-.3-.4-.8-.1-1.1.3-.3.8-.4 1.1-.1.6.5 1.2 1 1.8 1.6.4.1.4.6.1 1zm3.5 106.2l-1.7 1.7c-.3.3-.8.3-1.1 0-.3-.3-.3-.8 0-1.1l1.7-1.6c.3-.3.8-.3 1.1 0 .3.2.3.7 0 1zm1.6-101.2c-.3.3-.8.3-1.1 0l-1.6-1.7c-.3-.3-.3-.8 0-1.1.3-.3.8-.3 1.1 0l1.7 1.7c.2.3.2.8-.1 1.1zm3.2 95.9c-.5.6-1 1.2-1.6 1.8-.3.3-.8.4-1.1.1-.3-.3-.4-.8-.1-1.1l1.5-1.8c.3-.3.8-.4 1.1-.1.5.2.5.7.2 1.1zm.2-90.6l-1.5-1.8c-.3-.3-.2-.8.1-1.1.3-.3.8-.2 1.1.1.5.6 1 1.2 1.5 1.9.3.3.2.8-.1 1.1-.3.2-.8.2-1.1-.2zm4.1 84.8c-.4.7-.9 1.3-1.4 2-.3.4-.7.4-1.1.2-.4-.3-.4-.7-.2-1.1.5-.6.9-1.3 1.3-1.9.2-.4.7-.5 1.1-.2.5.1.6.6.3 1zm0-79c-.4-.7-.8-1.3-1.3-2-.2-.4-.1-.9.2-1.1.4-.2.9-.1 1.1.2l1.3 2c.2.4.1.9-.3 1.1-.3.3-.8.2-1-.2zm3.8 72.8l-1.2 2.1c-.2.4-.7.5-1.1.3-.4-.2-.5-.7-.3-1.1.4-.7.8-1.4 1.1-2.1.2-.4.7-.5 1.1-.3.4.2.6.7.4 1.1zm-.4-66.6c-.3-.7-.7-1.4-1.1-2.1-.2-.4-.1-.9.3-1.1.4-.2.9-.1 1.1.3l1.1 2.1c.2.4 0 .9-.4 1.1-.3.2-.8.1-1-.3zm3.5 60.1c-.3.7-.6 1.5-1 2.2-.2.4-.6.6-1 .4-.4-.2-.6-.6-.4-1 .3-.7.6-1.4.9-2.2.2-.4.6-.6 1-.4.4.1.6.6.5 1zm-.7-53.7l-.9-2.2c-.2-.4 0-.9.4-1 .4-.2.9 0 1 .4l.9 2.2c.2.4-.1.9-.5 1-.3.2-.7 0-.9-.4zm3.1 46.8l-.7 2.3c-.1.4-.6.6-1 .5-.4-.1-.6-.6-.5-1 .3-.7.5-1.5.7-2.2.1-.4.6-.7 1-.5.4.1.6.5.5.9zm1.2-4.6c-.1.4-.5.7-.9.6-.4-.1-.7-.5-.6-.9l.5-2.3c.1-.4.5-.7.9-.6.4.1.7.5.6.9-.1.7-.3 1.5-.5 2.3zm1.3-7.1c-.1.4-.5.7-.9.7-.4-.1-.7-.5-.7-.9.1-.8.2-1.6.3-2.3 0-.4.4-.8.9-.7.4 0 .8.4.7.9-.1.7-.2 1.5-.3 2.3zm-.2-6.4c-.4 0-.8-.4-.8-.8v-2.5c0-.4.4-.8.8-.8s.8.4.8.8v2.5c0 .4-.4.8-.8.8z"/><path fill="#006838" d="M77.5 1.6c41.9 0 75.9 34 75.9 75.9s-34 75.9-75.9 75.9c-41.9 0-75.9-34-75.9-75.9s34-75.9 75.9-75.9m-.1 3.9h2.3000000000000003c.4 0 .8-.3.8-.8 0-.4-.3-.8-.8-.8h-2.4c-.4 0-.8.4-.8.8.1.5.5.8.9.8m-7.1.4c.9-.1 1.6-.1 2.4-.2.4 0 .8-.4.7-.8 0-.4-.4-.7-.8-.7h-.1l-2.4.2c-.4 0-.8.4-.7.9.1.3.5.6.9.6m14.1 0c.8 0 1.6.1 2.4.2h.1c.4 0 .7-.3.8-.7 0-.4-.3-.8-.7-.8l-2.4-.3h-.1c-.4 0-.7.3-.8.7 0 .4.3.8.7.9m-21.2 1h.2c.8-.2 1.5-.3 2.3-.4.4-.1.7-.5.7-.9-.1-.4-.4-.7-.8-.7h-.1l-2.4.4c-.4.1-.7.5-.6.9 0 .5.3.7.7.7m28.2 0c.8.1 1.6.3 2.3.5h.2c.4 0 .7-.2.8-.6.1-.4-.2-.9-.6-.9l-2.4-.5h-.2c-.4 0-.7.3-.8.6 0 .4.3.8.7.9m-35.1 1.8h.2c.8-.3 1.5-.5 2.3-.7.4-.1.7-.5.6-1-.1-.4-.4-.6-.8-.6h-.2c-.8.2-1.5.4-2.3.7-.4.1-.7.6-.5 1 0 .4.3.6.7.6m44.5.6c.3 0 .6-.2.7-.5.1-.4-.1-.9-.5-1-.8-.3-1.5-.5-2.3-.7h-.2c-.3 0-.7.2-.8.6-.1.4.1.9.5 1l2.3.7c.1-.1.2-.1.3-.1m-51.2 1.8c.1 0 .2 0 .3-.1.7-.3 1.4-.6 2.2-.9.4-.2.6-.6.5-1-.1-.3-.4-.5-.7-.5-.1 0-.2 0-.3.1-.9.3-1.6.6-2.3.9-.4.2-.6.6-.4 1 .1.3.4.5.7.5m55.3-.1l2.2.9.3.1c.3 0 .6-.2.7-.5.2-.4 0-.9-.4-1l-2.2-1-.3-.1c-.3 0-.6.2-.7.5-.1.4 0 .9.4 1.1m-61.8 3.1c.1 0 .3 0 .4-.1l2.1-1.1c.4-.2.6-.7.4-1.1-.1-.3-.4-.4-.7-.4-.1 0-.2 0-.4.1l-2.1 1.1c-.4.2-.5.7-.3 1.1.1.3.3.4.6.4m68.2-.1c.7.4 1.4.8 2.1 1.1.1.1.3.1.4.1.3 0 .5-.1.7-.4.2-.4.1-.9-.3-1.1l-2.1-1.2c-.1-.1-.2-.1-.4-.1-.3 0-.6.2-.7.4-.2.5 0 1 .3 1.2m-74.3 3.8c.2 0 .3 0 .4-.1l2-1.3c.4-.2.5-.7.3-1.1-.2-.2-.4-.3-.7-.3-.1 0-.3 0-.4.1-.7.4-1.4.9-2 1.3-.4.2-.5.7-.2 1.1.1.2.4.3.6.3m82.8 1.3c.2 0 .5-.1.6-.3.3-.4.2-.8-.2-1.1l-2-1.4c-.1-.1-.3-.1-.4-.1-.3 0-.5.1-.7.4-.2.4-.1.9.2 1.1.7.4 1.3.9 1.9 1.3.3 0 .4.1.6.1m-88.5 3c.2 0 .4-.1.5-.2l1.8-1.5c.3-.3.4-.8.1-1.1-.2-.2-.4-.3-.6-.3-.2 0-.3.1-.5.2l-1.9 1.5c-.3.3-.4.8-.1 1.1.2.2.5.3.7.3m94.1 1.4c.2 0 .4-.1.6-.3.3-.3.3-.8-.1-1.1-.6-.5-1.2-1-1.8-1.6-.1-.1-.3-.2-.5-.2s-.5.1-.6.3c-.3.3-.2.8.1 1.1l1.8 1.5c.1.3.3.3.5.3m-63.5 27.8h5.6l-16.7 33.4h9.3l-16.7 33.3h26.5v19.3h14.3v-19.3h26l-16.8-33.3h9.3l-16.7-33.4h5.6l-14.8-29.7-14.9 29.7m-35.9-24.4c.2 0 .4-.1.6-.2.6-.6 1.1-1.1 1.7-1.6.3-.3.3-.8 0-1.1-.2-.2-.4-.2-.6-.2-.2 0-.4.1-.5.2-.6.5-1.2 1.1-1.7 1.7-.3.3-.3.8 0 1.1.1 0 .3.1.5.1m104.5 1.6c.2 0 .4-.1.5-.2.3-.3.3-.8 0-1.1-.5-.6-1.1-1.2-1.7-1.7-.2-.2-.4-.2-.6-.2-.2 0-.4.1-.6.2-.3.3-.3.8 0 1.1.6.6 1.1 1.1 1.6 1.7.4.1.6.2.8.2m-109.3 3.7c.2 0 .5-.1.6-.3l1.5-1.8c.3-.3.3-.8-.1-1.1-.2-.1-.3-.2-.5-.2s-.4.1-.6.3c-.5.6-1 1.2-1.6 1.8-.3.3-.2.8.1 1.1.3.1.4.2.6.2m111.9-.4l1.5 1.8c.2.2.4.3.6.3.2 0 .3-.1.5-.2.3-.3.4-.8.1-1.1l-1.5-1.9c-.2-.2-.4-.3-.6-.3-.2 0-.4.1-.5.2-.4.3-.4.8-.1 1.2m-116.1 6.1c.3 0 .5-.1.7-.4.4-.7.9-1.3 1.3-1.9.3-.4.2-.8-.2-1.1-.1-.1-.3-.1-.5-.1s-.5.1-.6.3l-1.4 2c-.2.4-.1.9.2 1.1.2.1.3.1.5.1m120.3-.5l1.3 2c.2.2.4.4.7.4.1 0 .3 0 .4-.1.4-.2.5-.7.3-1.1-.4-.7-.9-1.4-1.3-2-.2-.2-.4-.4-.7-.4-.2 0-.3 0-.4.1-.5.3-.6.8-.3 1.1m-124 6.6c.3 0 .6-.2.7-.4.4-.7.8-1.4 1.1-2.1.2-.4.1-.9-.3-1.1-.1-.1-.3-.1-.4-.1-.3 0-.5.1-.7.4l-1.2 2.1c-.2.4-.1.9.3 1.1.2.1.4.1.5.1m127.6-.5l1.1 2.1c.1.3.4.4.7.4.1 0 .2 0 .4-.1.4-.2.6-.7.4-1.1l-1.1-2.1c-.1-.3-.4-.4-.7-.4-.1 0-.3 0-.4.1-.4.2-.6.7-.4 1.1m-130.7 7c.3 0 .6-.2.7-.5.3-.7.6-1.4.9-2.2.2-.4 0-.9-.4-1l-.3-.1c-.3 0-.6.2-.7.5l-1 2.2c-.2.4 0 .9.4 1 .2.1.3.1.4.1m133.8-.7c.3.7.6 1.4.9 2.2.1.3.4.5.7.5.1 0 .2 0 .3-.1.4-.2.6-.6.5-1l-.9-2.2c-.1-.3-.4-.5-.7-.5-.1 0-.2 0-.3.1-.5.2-.7.6-.5 1m-136.2 7.4c.3 0 .7-.2.8-.6.2-.8.5-1.5.7-2.2.1-.4-.1-.9-.5-1h-.3c-.3 0-.6.2-.7.5-.3.8-.5 1.5-.7 2.3-.1.4.1.9.5 1h.2m140 2.1h.2c.4-.1.7-.5.6-1-.2-.8-.4-1.5-.7-2.3-.1-.3-.4-.6-.8-.6h-.2c-.4.1-.7.6-.5 1 .2.7.4 1.5.6 2.3.1.4.4.6.8.6m-141.7 4.9c.4 0 .7-.3.8-.6.1-.8.3-1.6.5-2.4.1-.4-.2-.9-.6-.9h-.2c-.4 0-.7.2-.8.6l-.5 2.4c-.1.4.2.8.6.9h.2m143.2 2.1h.1c.4-.1.7-.5.7-.9l-.4-2.4c-.1-.4-.4-.6-.8-.6h-.2c-.4.1-.7.5-.6.9.2.8.3 1.5.4 2.3.1.4.4.7.8.7m-144.2 4.9c.4 0 .7-.3.8-.7 0-.8.1-1.5.2-2.3.1-.4-.2-.8-.7-.9h-.1c-.4 0-.7.3-.8.7l-.3 2.4c.1.4.4.8.9.8m145 2.2c.5 0 .8-.4.8-.8l-.2-2.4c0-.4-.4-.7-.8-.7h-.1c-.4 0-.8.4-.7.9.1.8.1 1.6.2 2.3 0 .4.4.7.8.7m-145.4 5c.4 0 .8-.4.8-.8v-2.4c0-.4-.3-.8-.8-.8-.4 0-.8.3-.8.8v2.4c.1.4.4.8.8.8m145.5 2.3c.4 0 .8-.3.8-.8v-2.5c0-.4-.4-.8-.8-.8s-.8.4-.8.8v2.5c0 .4.4.8.8.8m-145.1 4.8c.5 0 .8-.4.8-.9-.1-.8-.1-1.6-.2-2.3 0-.4-.4-.7-.8-.7h-.1c-.4 0-.8.4-.7.8l.2 2.4c.1.4.4.7.8.7m144-.9c-.1.8-.2 1.6-.3 2.3-.1.4.2.8.7.9h.1c.4 0 .7-.3.8-.7l.3-2.4c0-.4-.3-.8-.7-.9h-.1c-.4 0-.7.3-.8.8m-143 8h.2c.4-.1.7-.6.6-1-.2-.8-.3-1.5-.4-2.3-.1-.4-.4-.7-.8-.7h-.1c-.4.1-.7.5-.7.9l.4 2.4c.1.4.5.7.8.7m142-1.1l-.5 2.3c-.1.4.2.9.6.9h.2c.4 0 .7-.2.8-.6l.5-2.4c.1-.4-.2-.8-.6-.9h-.2c-.4.1-.7.4-.8.7m-140.2 8h.2c.4-.1.7-.6.5-1l-.6-2.3c-.1-.4-.4-.6-.8-.6h-.2c-.4.1-.7.5-.6 1 .2.8.4 1.5.7 2.3.1.4.4.6.8.6m138.5 2.2c.3 0 .6-.2.7-.5.3-.8.5-1.5.7-2.3.1-.4-.1-.9-.5-1h-.2c-.3 0-.7.2-.8.6-.2.8-.5 1.5-.7 2.2-.1.4.1.9.5 1h.3m-136.1 4.5c.1 0 .2 0 .3-.1.4-.2.6-.6.4-1-.3-.7-.6-1.4-.9-2.2-.1-.3-.4-.5-.7-.5-.1 0-.2 0-.3.1-.4.2-.6.6-.5 1l.9 2.2c.2.3.5.5.8.5m133.5 2.1c.3 0 .6-.2.7-.5l1-2.2c.2-.4 0-.9-.4-1l-.3-.1c-.3 0-.6.2-.7.5-.3.7-.6 1.4-.9 2.2-.2.4 0 .9.4 1 0 .1.1.1.2.1m-130.5 4.3c.1 0 .3 0 .4-.1.4-.2.5-.7.3-1.1l-1.1-2.1c-.1-.3-.4-.4-.7-.4-.1 0-.2 0-.4.1-.4.2-.6.7-.4 1.1l1.1 2.1c.3.3.6.4.8.4m127.2 2.1c.3 0 .5-.1.7-.4l1.2-2.1c.2-.4.1-.9-.3-1.1-.1-.1-.2-.1-.4-.1-.3 0-.6.2-.7.4-.4.7-.8 1.4-1.1 2.1-.2.4-.1.9.3 1.1 0 .1.2.1.3.1m-123.5 4c.2 0 .3 0 .4-.1.4-.2.5-.7.2-1.1l-1.3-2c-.1-.2-.4-.4-.7-.4-.1 0-.3 0-.4.1-.4.2-.5.7-.3 1.1.4.7.9 1.4 1.3 2 .3.3.6.4.8.4m119.6 2c.2 0 .5-.1.6-.3l1.4-2c.2-.4.1-.9-.2-1.1-.1-.1-.3-.1-.4-.1-.3 0-.5.1-.7.4-.4.7-.9 1.3-1.3 1.9-.3.4-.2.8.2 1.1l.4.1m-115.3 3.8c.2 0 .4-.1.5-.2.3-.3.4-.8.1-1.1l-1.5-1.8c-.2-.2-.4-.3-.6-.3-.2 0-.3.1-.5.2-.3.3-.4.8-.1 1.1l1.5 1.9c.1.1.3.2.6.2m110.9 1.8c.2 0 .4-.1.6-.3.5-.6 1-1.2 1.6-1.8.3-.3.2-.8-.1-1.1-.1-.1-.3-.2-.5-.2s-.5.1-.6.3l-1.5 1.8c-.3.3-.3.8.1 1.1 0 .1.2.2.4.2m-106.1 3.5c.2 0 .4-.1.6-.2.3-.3.3-.8 0-1.1-.6-.6-1.1-1.1-1.6-1.7-.2-.2-.4-.3-.6-.3-.2 0-.4.1-.5.2-.3.3-.3.8 0 1.1.5.6 1.1 1.2 1.7 1.7 0 .2.2.3.4.3m101.1 1.6c.2 0 .4-.1.5-.2.6-.5 1.2-1.1 1.7-1.7.3-.3.3-.8 0-1.1-.2-.2-.4-.2-.6-.2-.2 0-.4.1-.6.2-.6.6-1.1 1.1-1.7 1.6-.3.3-.3.8 0 1.1.3.2.5.3.7.3m-95.8 3.1c.2 0 .5-.1.6-.3.3-.3.2-.8-.1-1.1l-1.8-1.5c-.2-.1-.3-.2-.5-.2s-.4.1-.6.3c-.3.3-.3.8.1 1.1.6.5 1.2 1 1.8 1.6.1.1.3.1.5.1m90.4 1.5c.2 0 .3-.1.5-.2l1.9-1.5c.3-.3.4-.8.1-1.1-.2-.2-.4-.3-.6-.3-.2 0-.4.1-.5.2l-1.8 1.5c-.3.3-.4.8-.1 1.1 0 .2.2.3.5.3m-84.7 2.8c.3 0 .5-.1.7-.4.2-.4.1-.9-.2-1.1-.7-.4-1.3-.9-1.9-1.3-.1-.1-.3-.1-.5-.1s-.5.1-.6.3c-.3.4-.2.8.2 1.1l2 1.4c0 .1.1.1.3.1m78.8 1.3c.1 0 .3 0 .4-.1.7-.4 1.4-.9 2-1.3.4-.2.5-.7.2-1.1-.2-.2-.4-.4-.7-.4-.2 0-.3 0-.4.1l-2 1.3c-.4.2-.5.7-.3 1.1.3.3.6.4.8.4m-72.7 2.4c.3 0 .6-.2.7-.4.2-.4.1-.9-.3-1.1-.7-.4-1.4-.8-2.1-1.1-.1-.1-.3-.1-.4-.1-.3 0-.5.1-.7.4-.2.4-.1.9.3 1.1l2.1 1.2h.4m68.2-1.5l-2.1 1.1c-.4.2-.6.7-.4 1.1.1.3.4.4.7.4.1 0 .2 0 .3-.1l2.1-1.1c.4-.2.5-.7.3-1.1-.1-.3-.4-.4-.7-.4l-.2.1m-61.7 4.5c.3 0 .6-.2.7-.5.2-.4 0-.9-.4-1-.7-.3-1.4-.6-2.2-.9l-.3-.1c-.3 0-.6.2-.7.5-.2.4 0 .9.4 1l2.2 1h.3m53.5.9c.1 0 .2 0 .3-.1l2.2-.9c.4-.2.6-.6.4-1-.1-.3-.4-.5-.7-.5-.1 0-.2 0-.3.1-.7.3-1.4.6-2.2.9-.4.2-.6.6-.5 1 .1.3.4.5.8.5m-46.8 1.5c.3 0 .7-.2.8-.6.1-.4-.1-.9-.5-1-.8-.2-1.5-.5-2.2-.7h-.3c-.3 0-.6.2-.7.5-.1.4.1.9.5 1 .8.3 1.5.5 2.3.7 0 .1 0 .1.1.1m40 .7h.2c.8-.2 1.5-.4 2.3-.7.4-.1.7-.6.5-1-.1-.3-.4-.6-.8-.6h-.2c-.7.2-1.5.4-2.3.6-.4.1-.7.5-.6 1 .2.4.5.7.9.7m-33.1 1.1c.4 0 .7-.3.8-.6.1-.4-.2-.8-.6-.9l-2.3-.5h-.2c-.4 0-.7.2-.8.6-.1.4.2.9.6.9l2.4.5h.1m26.1.4h.1l2.4-.4c.4-.1.7-.5.6-.9-.1-.4-.4-.6-.8-.6h-.2c-.8.2-1.5.3-2.3.4-.4.1-.7.5-.7.9.2.3.5.6.9.6m-19 .6c.4 0 .7-.3.8-.7 0-.4-.3-.8-.7-.9-.8-.1-1.6-.2-2.3-.3h-.1c-.4 0-.7.3-.8.7-.1.4.2.8.7.9.7.1 1.5.2 2.4.3m11.9.2c.9-.1 1.7-.1 2.4-.2.4 0 .8-.4.7-.9 0-.4-.4-.7-.8-.7h-.1c-.8.1-1.6.1-2.3.2-.4 0-.8.4-.7.8 0 .5.4.8.8.8m-4.8.1c.5 0 .8-.4.8-.8s-.4-.8-.8-.8h-2.3c-.4 0-.8.3-.8.8 0 .4.3.8.8.8h2.3m0-151c-42.7 0-77.5 34.8-77.5 77.5s34.8 77.5 77.5 77.5 77.5-34.8 77.5-77.5-34.8-77.5-77.5-77.5zm-13 49.7l12.3-24.5 12.2 24.5h-5.6l1.1 2.3 15.5 31.1h-9.3l1.1 2.3 15.5 31.1h-24.8v19.400000000000002h-11v-19.5h-25.6l15.5-31.1 1.1-2.3h-9.3l15.7-31 1.1-2.3h-5.5z"/></svg>