<svg xmlns="http://www.w3.org/2000/svg" width="130" height="154.3" viewBox="45 -57.3 130 154.3">
  <path fill="#F5C937" d="M140.3-8.9s.9 15.4-11.3 17.5c-12.2 2.1-14.6-7.7-8.7-23.7 6-16-1.3-32.1-15.8-38.5 0 0 7.2 18-8.8 29.5S47 7 47 49.3c0 42.2 53.2 45.3 53.2 45.3S71.7 76.9 85.3 43.9c0 0 4.5 19.6 21 15.2 0 0 12.5-5.6 6.9-18 0 0-3.9-6.4-3.6-17.9 0 0 2.3 6.4 18.6 19.3s12.8 29.3 0 43.7c0 0 39.5-3.8 44.3-40S140.3-8.9 140.3-8.9z"/>
  <path fill="#AC6A29" d="M104.5-53.5C119-47.1 126.3-31 120.3-15c-5.4 14.5-4 24 5.6 24 1 0 2-.1 3.1-.3 12.2-2.1 11.3-17.5 11.3-17.5s37.1 18.9 32.3 55.1-44.3 40-44.3 40c12.8-14.4 16.3-30.8 0-43.7-16.3-12.9-18.6-19.3-18.6-19.3-.3 11.4 3.6 17.9 3.6 17.9 5.6 12.4-6.9 18-6.9 18-1.6.4-3.2.6-4.6.6-12.8 0-16.4-15.9-16.4-15.9-13.6 33 14.9 50.7 14.9 50.7S47 91.5 47 49.3C47 7 79.7-12.6 95.7-24c16-11.5 8.8-29.5 8.8-29.5m-3.6-3.8l1.8 4.5c.3.7 6.4 16.8-8.1 27.2-1.2.8-2.4 1.7-3.8 2.7C73.6-10.9 45 9.1 45 49.3c0 18.1 9.6 32 27.8 40.3 13.5 6.1 26.8 6.9 27.3 7l7.7.4-6.6-4.1c-.1 0-6.9-4.4-12-12.5-5.9-9.3-7.2-19.6-3.9-30.7 2.4 5.1 7.3 12 16.4 12 1.6 0 3.3-.2 5.1-.7h.2l.1-.1c.3-.1 6.4-2.9 8.7-9 1.4-3.6 1.1-7.5-.8-11.7v-.1l-.1-.1s-2.1-3.6-2.9-10c2.8 3.3 7.5 8 15.1 14 6.2 4.9 9.6 10.5 10.1 16.6.7 7.5-2.9 15.8-10.4 24.2l-3.3 3.7 5-.5c.4 0 10.4-1 21.1-6.6 14.3-7.5 23-19.6 25-35.1 2-15.4-3.1-30.2-14.9-42.8-8.8-9.4-18.1-14.2-18.5-14.4l-3.1-1.6.2 3.4c0 .6.7 13.7-9.7 15.5-1 .2-1.9.3-2.8.3-2.5 0-4.3-.8-5.4-2.3-2.3-3.2-1.6-10.2 1.7-19 3-8.1 2.9-16.7-.3-24.3-3.1-7.4-9.1-13.3-16.6-16.7l-4.3-1.7z"/>
  <path fill="#F5C937" d="M96.7 93.2c-4.8-.6-13.8-2.3-22.7-6.4C56.7 79 48 66.4 48 49.3c0-38.6 27.8-58.1 44.5-69.8 1.3-.9 2.6-1.8 3.8-2.7 13-9.4 11.2-23.1 9.8-28.5 13.1 6.9 18.7 21.8 13.3 36.3-3.8 10-4.2 17.6-1.3 21.7 1.6 2.4 4.3 3.6 7.8 3.6 1 0 2.1-.1 3.3-.3 5.4-.9 9.2-4.5 11-10.2.8-2.6 1-5 1.1-6.6 2.9 1.7 9.8 6.1 16.3 13 11.3 12 16 25.6 14.1 40.3-1.9 14.7-9.8 25.7-23.4 32.8-7.1 3.7-13.9 5.3-17.5 6 6.8-8.3 10.1-16.7 9.4-24.4-.6-7-4.4-13.3-11.2-18.7-15.8-12.4-18.3-18.8-18.3-18.9l-1.8-4.8-.1 5.1c-.3 11.2 3.3 17.6 3.7 18.3 4.9 11-5.3 16.1-6.4 16.6-1.5.4-2.9.6-4.2.6-11.8 0-15.5-15-15.5-15.1l-.7-3-1.2 2.8C77.3 60.8 81.9 74 86.9 82c3.3 5.4 7.2 9.1 9.8 11.2z"/>
  <path fill="#FFF" d="M107.4-47.9l-.7.1c0 .3.1.6.1.9v.8h.7c.1-.5 0-1.1-.1-1.8zm-.4 4v1.9h.7c0-.7.1-1.3.1-2l-.8.1zm-.3 3.9c-.1.6-.2 1.3-.4 1.9l.6.1c.1-.6.3-1.3.4-2h-.6zm-.8 3.9c0 .1 0 .2-.1.2-.1.2-.2.5-.3.7-.1.2-.1.3-.2.5l.6.2c.3-.6.5-1.3.7-1.9l-.7.3zm-1.5 3.6c0 .1-.1.1-.1.2-.2.4-.4.7-.6 1.1-.1.1-.1.2-.2.3l.6.3c.4-.6.7-1.2 1-1.8l-.7-.1zm-2.1 3.4c-.1.2-.3.4-.4.6-.2.3-.4.5-.7.8l.5.4c.4-.5.9-1 1.3-1.6l-.7-.2zm-2.6 2.9s0 .1 0 0c0 .1 0 .1 0 0 0 .1 0 .1 0 0 0 .1 0 .1 0 0 0 .1 0 .1 0 0 0 .1 0 .1 0 0 0 .1 0 .1 0 0 0 .1 0 .1 0 0 0 .1 0 .1 0 0 0 .1 0 .1 0 0 0 .1 0 .1 0 0 0 .1 0 .1 0 0 0 .1 0 .1 0 0 0 .1 0 .1 0 0 0 .1 0 .1 0 0 0 .1 0 .1 0 0-.1.1-.1.1 0 0-.1.1-.1.1 0 0l-.1.1c-.3.3-.6.6-.9.8l.4.5c.5-.4 1-.9 1.5-1.4h-.9zm-3 2.6c-.2.1-.3.2-.5.4-.1.1-.2.2-.3.2-.2.1-.3.2-.5.3-.1 0-.1.1-.2.1l.4.5c.4-.3.8-.5 1.1-.8.2-.1.3-.2.5-.4l-.5-.3zm-3.2 2.3c-.1.1-.2.2-.4.3-.2.2-.5.3-.7.5-.1 0-.1.1-.2.1-.1.1-.2.1-.3.2l.4.5.5-.4.1-.1 1-.7-.4-.4zM90.3-19c-.5.4-1.1.8-1.6 1.1l.4.5c.5-.4 1.1-.8 1.6-1.1l-.4-.5zm-3.2 2.3c-.1.1-.3.2-.4.3-.2.2-.5.3-.7.5-.1.1-.2.2-.4.3l.4.5c.5-.4 1.1-.8 1.6-1.2l-.5-.4zm-3.2 2.3c-.1.1-.2.1-.3.2-.3.2-.6.5-.9.7-.1.1-.2.1-.2.2l.4.5c.5-.4 1-.8 1.6-1.2l-.6-.4zM80.8-12c-.1.1-.2.1-.2.2l-.1.1-1.2.9.4.5 1.5-1.2-.4-.5zm-3 2.5l-.3.3c-.2.2-.5.4-.7.6-.1 0-.1.1-.2.1l.4.5c.5-.4 1-.9 1.5-1.3l-.7-.2zm-3 2.5l-.1.1c-.4.3-.7.7-1.1 1l.4.5c.5-.4 1-.9 1.5-1.3l-.7-.3zm-2.9 2.7c-.1 0-.1.1 0 0-.1.1-.1.1 0 0-.1.1-.1.1 0 0-.1.1-.1.1 0 0-.1.1-.1.1 0 0l-.1.1-1.1 1.1.5.5L72.6-4l-.7-.3zm-2.8 2.8l-.3.3-.1.1-.1.1-.1.1-.2.2.5.4c.4-.5.9-1 1.3-1.4l-1 .2zm-2.7 2.9c-.4.5-.8 1-1.2 1.4l.5.4c.4-.5.8-1 1.3-1.5l-.6-.3zm-2.5 3c-.1 0-.1 0 0 0-.1 0-.1 0 0 0-.1 0-.1 0 0 0-.1.1-.1.1 0 0-.1.1-.1.1 0 0-.1.1-.1.1 0 0l-.1.1c-.2.2-.3.4-.5.6l.5.4L65 4l-1.1.4zm-2.4 3.1c-.4.5-.8 1.1-1.1 1.6l.5.4c.3-.5.7-1.1 1.1-1.6l-.5-.4zm-2.3 3.3c-.3.5-.7 1-1 1.6l.6.3c.3-.6.7-1.1 1-1.6l-.6-.3zm-2 3.3c-.1.2-.2.4-.3.5v.4c-.1.2-.3.5-.4.7l.6.3c.3-.6.6-1.1 1-1.7l-.9-.2zm-1.9 3.5c-.1.3-.3.6-.4.9l-.3.6.6.3.9-1.8h-.8zm-1.7 3.6c-.1.2-.2.5-.3.7v.2c0 .1-.1.1-.1.2l.6.2c.2-.6.5-1.2.8-1.8l-1 .5zm-1.4 3.6c0 .1-.1.3-.1.4v.4c-.1.4-.2.7-.4 1.1l.6.2.6-1.8-.7-.3zm-1.3 3.7c0 .1-.1.3-.1.4-.1.5-.3.9-.4 1.4l.6.2c.2-.6.3-1.3.5-1.9l-.6-.1zm-1 3.8c0 .1-.1.3-.1.4v.3c0 .2-.1.4-.1.6l.6.1c.1-.6.3-1.3.4-1.9l-.8.5zm-.8 3.9c-.1.5-.2.9-.2 1.4v.3l.6.1c.1-.6.2-1.3.3-1.9l-.7.1zm-.6 3.9c-.1.6-.1 1.3-.2 2l.7.1c.1-.7.1-1.3.2-1.9l-.7-.2zm-.4 3.9c0 .3 0 .6-.1.9v.9h.7c0-.7.1-1.3.1-2l-.7.2zm-.1 4v1.4h.7v-1.9l-.7.5zm.7 3.9H48c0 .5.1 1 .1 1.5v.1l.7-.1c0-.2-.1-.9-.1-1.5zm.4 3.8l-.6.1c0 .2.1.5.1.7 0 .1 0 .2.1.4l.6-.1c0 .2-.1-.4-.2-1.1zm.7 3.8l-.6.2c.2.6.3 1.3.5 1.9l.6-.2c-.2-.6-.3-1.2-.5-1.9zm1.1 3.7l-.6.2c.2.6.5 1.2.7 1.8l.6-.3c-.2-.5-.5-1.1-.7-1.7zm1.5 3.6l-.6.3c.3.6.6 1.2.9 1.7l.6-.3c-.3-.6-.6-1.1-.9-1.7zm1.9 3.3l-.6.4c.2.2.3.5.5.7.1.1.1.2.2.2l.5-.4c.2.2-.2-.3-.6-.9zm2.3 3.2l-.5.4c.1.2.3.4.4.5.2.3.5.6.7.9l.5-.4c-.3-.4-.7-.9-1.1-1.4zm2.6 2.9l-.5.5.4.4.2.2.4-.5c.4.3-.1-.2-.5-.6zm2.9 2.6l-.4.5.1.1c.4.3.9.7 1.3 1l.4-.5c-.4-.3-1-.7-1.4-1.1zm3 2.3l-.4.5.9.6h.1l.4-.6c.1.3-.4-.1-1-.5zm3.3 2.1l-.3.6c.1 0 .1.1.2.1.4.2.9.5 1.3.7l.3-.6c-.4-.1-.9-.4-1.5-.8zm3.4 1.9l-.3.6c.2.1.5.2.7.4h.1c.3.1.5.3.8.4l.3-.6-1.6-.8zm3.6 1.7l-.3.6c.6.3 1.2.5 1.8.8l.2-.6c-.5-.3-1.1-.6-1.7-.8zm3.6 1.4l-.2.6c.1 0 .2.1.3.1.5.2 1 .3 1.4.5l.2-.6c-.5-.1-1.1-.4-1.7-.6zm3.7 1.3l-.2.6c.6.2 1.1.3 1.7.5h.1l.2-.6c-.6-.2-1.2-.3-1.8-.5zm3.7 1l-.2.6c.6.1 1.1.3 1.7.4h.2l.2-.6c-.6 0-1.2-.2-1.9-.4zm3.9.9l-.1.6c.3.1.6.1.9.2.3.1.6.1.9.2l.1-.6c-.5-.1-1.2-.2-1.8-.4zm4-.3l-.4.5c.2.2.5.4.7.6-.1 0-.3 0-.4-.1l-.2.7c.6.1 1.1.2 1.6.2.1 0 .2 0 .4.1l.1-.5c-.1-.1-.2-.1-.3-.2-.4-.3-.8-.7-1.2-1.1-.2-.1-.2-.1-.3-.2.1.1.1.1 0 0 .1.1 0 .1 0 0zm-2.7-2.8l-.5.4c.4.5.9 1 1.4 1.5l.5-.5c-.5-.4-1-.9-1.4-1.4zm-2.6-3l-.5.4c.4.5.8 1.1 1.2 1.6l.5-.4c-.2-.2-.3-.4-.5-.6-.3-.5-.5-.8-.7-1zm-2.2-3.2l-.6.4v.1c.3.5.7 1.1 1.1 1.6l.5-.4v-.1c-.3-.4-.6-.9-.9-1.4-.1-.1-.1-.1-.1-.2 0 .1 0 .1 0 0zm-2-3.5l-.6.3.9 1.8.6-.3c-.2-.6-.6-1.2-.9-1.8zM83.2 75l-.6.2c.2.6.5 1.2.8 1.9l.6-.3c-.2-.5-.4-.9-.6-1.4-.1-.2-.1-.3-.2-.4zM82 71.3l-.6.2c.2.6.4 1.3.6 1.9l.6-.2c-.2-.5-.3-1-.5-1.5 0-.3-.1-.3-.1-.4zm-.8-3.9l-.6.1c.1.7.2 1.3.4 2l.6-.1c-.2-.7-.3-1.3-.4-2zm-.5-3.9H80c0 .7.1 1.3.2 2l.7-.1v-.3c-.1-.6-.1-1.1-.2-1.6zm-.7-3.9v2h.7v-1.8l-.7-.2zm.4-4c-.1.7-.2 1.3-.2 2l.7.1c0-.3.1-.6.1-1 0-.2 0-.3.1-.5l-.7-.6zm.7-4c-.1.7-.3 1.3-.4 2l.6.1v-.2l.3-1.5-.5-.4zm1-3.8c-.2.6-.4 1.3-.6 1.9l.6.2c.1-.5.3-.9.4-1.4l-.4-.7zm1.4-3.8c-.2.6-.5 1.2-.7 1.9l.6.2c.2-.6.4-1.2.7-1.8l-.6-.3zm2.2-5.5l-.7 1.9-.7 1.8.6.2.7-1.8.6-.1-.5-2zm1 4l-.7.1.2 1s.1.3.2.9l.6-.2c-.2-.5-.2-.8-.2-.8l-.1-1zm1.1 3.6l-.6.2s0 .1.1.1c.2.5.4 1.1.7 1.6l.6-.3c-.4-.4-.6-1-.8-1.6zm1.6 3.5l-.6.3c.1.2.2.3.3.5.1.2.3.5.5.7 0 .1.1.1.1.2l.5-.4c-.2-.1-.5-.7-.8-1.3zm2.1 3.2l-.5.4.1.1.1.1.4.4.5-.5c.2.5-.2 0-.6-.5zm2.7 2.7l-.4.5c.5.4 1.1.8 1.6 1.1l.3-.6c-.5-.3-1-.6-1.5-1zm3.2 1.8l-.2.6c.6.2 1.1.4 1.8.5l.1-.6c-.5-.1-1.1-.3-1.7-.5zm5.5.8H101v.7h1l.9-.7zm3.5-.9c-.3.2-.5.3-.7.4-.3.1-.7.2-1 .2l.1.6c.4-.1.7-.2 1.1-.2.1-.1.4-.2.8-.4l-.3-.6zm3.1-2.2c-.4.4-.9.8-1.4 1.2l.4.5c.3-.2.6-.4.9-.7.2-.2.4-.3.6-.5l-.5-.5zm2.3-2.9c-.3.5-.6 1-1 1.5l.5.4c.4-.5.8-1 1.1-1.6l-.6-.3zm1.2-3.5c-.1.6-.2 1.2-.4 1.8l.6.2c.2-.6.3-1.2.4-1.8l-.6-.2zm.4-3.9l-.6.1c.1.6.2 1.2.2 1.8h.7c0-.5-.1-1.2-.3-1.9zm-1.3-3.7l-.6.3c.1.2.2.4.3.5.2.4.3.8.5 1.2l.6-.2c-.1-.4-.3-.8-.5-1.1-.1-.2-.2-.4-.3-.7zm-1.5-3.6l-.6.2c.2.7.4 1.3.7 1.9l.6-.2c-.2-.4-.3-.9-.5-1.4-.1-.2-.1-.3-.2-.5zm-1-3.8l-.6.1c.1.7.3 1.3.5 1.9l.6-.2c-.2-.5-.4-1.1-.5-1.8zm-.6-3.9l-.7.1c.1.7.2 1.3.3 2l.6-.1c-.1-.7-.2-1.3-.2-2zm-.3-3.9h-.7c0 .7.1 1.3.1 2h.7v-.5c-.1-.6-.1-1-.1-1.5zm-.7-4v2h.7v-1.9l-.7-.1zm.2-7.1l-.1 3.4v1.7h.7v-1.7l.1.1.6-.2-.1-.2-1.2-3.1zm2 5.3l-.6.2.7 1.8.6-.2-.7-1.8zm1.4 3.5l-.6.3c.1.1.1.2.2.3.2.3.4.6.6 1l.1.1.5-.4c-.1-.3-.5-.8-.8-1.3zm2.2 3.2l-.5.4c.4.5.8 1 1.3 1.5l.5-.4c-.5-.5-.9-1-1.3-1.5zm2.6 2.9l-.5.4c.4.5.9.9 1.4 1.4l.5-.5c-.6-.4-1-.8-1.4-1.3zm2.7 2.8l-.5.5 1.4 1.4.4-.5c-.4-.5-.8-1-1.3-1.4zm2.9 2.7l-.4.5c.1.1.2.2.4.3.2.2.5.4.7.6l.4-.5c-.2-.1-.7-.5-1.1-.9zm2.9 2.6l-.4.5c.5.4 1 .8 1.5 1.3l.4-.5c-.5-.5-1-.9-1.5-1.3zm3 2.5l-.4.5c.4.3.9.7 1.3 1l.1.1.1.1h.1l.4-.5-.2-.1c-.5-.4-.9-.8-1.4-1.1zm3.1 2.5l-.4.5c.5.4.9.8 1.4 1.3l.5-.5c-.5-.4-1-.9-1.5-1.3zm2.9 2.8l-.5.4c.2.2.3.4.5.6.1.1.1.2.2.3l.5-.4c.2.1-.3-.4-.7-.9zm2.5 3.1l-.5.4c.2.3.5.7.7 1 .1.1.2.3.3.4l.6-.3c-.3-.4-.7-.9-1.1-1.5zm2.1 3.5l-.6.3c.2.4.4.8.5 1.2v.4c0 .1.1.2.1.3l.6-.2c-.1-.8-.3-1.4-.6-2zm1.4 3.7l-.6.2c0 .1.1.2.1.3v.2c0 .2.1.4.1.6l.6-.1c.2.2 0-.5-.2-1.2zm.8 4l-.7.1v.5c0 .5.1.9.1 1.4h.7c0-.5 0-1-.1-1.5.1-.1.1-.3 0-.5zm-.5 4v.2c0 .5-.1 1.1-.2 1.6l.7.1c.1-.7.2-1.3.2-2l-.7.1zm-.5 3.9c-.1.6-.3 1.3-.5 1.9l.6.2c.2-.7.3-1.3.5-2l-.6-.1zm-1.1 3.8c0 .1 0 .1 0 0 0 .1 0 .1 0 0 0 .1 0 .1 0 0 0 .1 0 .1 0 0 0 .1 0 .1 0 0 0 .1 0 .1 0 0 0 .1 0 .1 0 0 0 .1 0 .1 0 0v.1c-.2.6-.4 1.1-.7 1.7l.6.3c.3-.6.5-1.3.7-1.9l-.6-.2zm-1.5 3.6c-.1.3-.3.5-.4.8-.1.3-.3.5-.4.8l.6.3.9-1.8-.7-.1zm-1.9 3.5l-.3.6c-.2.3-.4.7-.7 1l.5.4c.4-.6.7-1.1 1.1-1.7l-.6-.3zm-2.2 3.3c-.2.2-.3.4-.5.6-.2.2-.4.5-.5.7 0 .1-.1.1-.1.2l.5.4c-.3.1-.6.1-1 .2-.1.2-.3.4-.5.6v.2c.6-.1 1.2-.2 1.9-.4l-.1-.6c-.1 0-.3.1-.4.1.4-.5.8-1.1 1.2-1.6l-.5-.4zm3.5.9c-.6.2-1.3.3-1.9.5l.2.6c.4-.1.8-.2 1.3-.3h.1c.1 0 .3-.1.4-.1l-.1-.7zm3.7-1.2l-1.8.6.2.6c.2-.1.4-.1.7-.2.3-.1.6-.2 1-.3l-.1-.7zm3.7-1.4c-.6.3-1.2.5-1.8.7l.2.6h.1c.5-.2 1.1-.4 1.6-.7l-.1-.6zm3.5-1.6c-.6.3-1.2.6-1.7.9l.3.6 1.8-.9-.4-.6zm3.4-1.9c-.5.3-1.1.7-1.7 1l.3.6c.6-.3 1.1-.7 1.7-1l-.3-.6zm3.3-2.1c-.5.4-1.1.7-1.6 1.1l.4.5c.1-.1.3-.2.4-.3.4-.2.7-.5 1-.7l-.2-.6zm3-2.4l-1.5 1.2.4.5 1.5-1.2-.4-.5zm2.8-2.7c-.4.5-.9.9-1.4 1.4l.4.5 1.4-1.4-.4-.5zm2.6-2.9l-1.2 1.5.5.4.1-.1c.4-.4.7-.9 1.1-1.3l-.5-.5zm2.3-3.1c-.3.5-.7 1.1-1.1 1.6l.5.4c.3-.5.6-.9.9-1.4l.1-.1-.4-.5zm1.9-3.4c-.3.6-.6 1.1-.9 1.7l.6.3c.1-.2.3-.5.4-.7.2-.3.3-.6.5-1l-.6-.3zm1.6-3.5c-.2.6-.5 1.2-.8 1.8l.6.3c.3-.6.5-1.2.8-1.8l-.6-.3zm1.2-3.7l-.6 1.8.6.2.6-1.8-.6-.2zm1-3.8c-.1.6-.3 1.3-.4 1.9l.6.2c0-.2.1-.4.1-.6v-.1c.1-.3.1-.5.2-.8l-.5-.6zm.6-3.8c0 .2-.1.5-.1.7-.1.4-.1.8-.2 1.2l.6.1v-.4c0-.2 0-.4.1-.6v-.1l-.4-.9zm.3-3.9c0 .6-.1 1.3-.1 1.9l.7.1V43c0-.3 0-.7.1-1v-.3l-.7-.3zm.6-3.9h-.7c0 .6 0 1.3.1 1.9h.7c0-.6-.1-1.2-.1-1.9 0 .1 0 .1 0 0 0 .1 0 .1 0 0zm-.4-3.9l-.7.1c.1.6.2 1.3.2 1.9l.7-.1c0-.2 0-.5-.1-.7 0-.8 0-1-.1-1.2zm-.7-3.9l-.6.1c.1.6.3 1.3.4 1.9l.6-.1c-.1-.9-.2-1.4-.4-1.9zm-1-3.8l-.6.2c.2.6.4 1.2.6 1.9l.6-.2c-.1-.5-.3-.9-.4-1.4-.1-.2-.2-.4-.2-.5zm-1.4-3.7l-.6.3c.3.6.5 1.2.7 1.8l.6-.2c-.2-.7-.4-1.3-.7-1.9zm-1.7-3.6l-.6.3c.3.6.6 1.2.9 1.7l.6-.3v-.1c-.1-.3-.3-.5-.4-.8v-.1c-.3-.3-.3-.4-.5-.7.1.1.1.1 0 0 .1.1.1.1 0 0 .1.1.1.1 0 0 .1.1.1.1 0 0 .1.1.1.1 0 0 .1.1.1.1 0 0 .1.1.1.1 0 0 .1.1.1.1 0 0zm-1.9-3.4l-.6.3c.3.6.7 1.1 1 1.7l.6-.3c-.1-.1-.1-.2-.2-.3-.3-.5-.5-.9-.8-1.4zm-2.2-3.2l-.5.4c.4.5.8 1.1 1.1 1.6l.5-.4c-.3-.6-.7-1.1-1.1-1.6zm-2.4-3.2l-.5.4 1.2 1.5.5-.4c-.1-.1-.1-.2-.2-.3l-.1-.1c-.5-.6-.7-.8-.9-1.1zm-2.6-2.9l-.5.4c.4.5.9 1 1.3 1.4l.5-.4c-.1-.1-.2-.3-.4-.4-.4-.5-.7-.7-.9-1zm-2.8-2.8l-.5.5c.5.4.9.9 1.4 1.4l.5-.5c-.4-.5-.9-1-1.4-1.4zM152 .4l-.4.5c.5.4 1 .8 1.5 1.3l.4-.5c-.5-.4-.9-.8-1.3-1.2-.1 0-.2 0-.2-.1zM148.9-2l-.4.5L150-.3l.4-.5c-.1-.1-.2-.2-.4-.3-.3-.4-.7-.7-1.1-.9zm-3.1-2.4l-.4.5c.5.4 1 .7 1.6 1.1l.4-.5c-.2-.1-.3-.3-.5-.4-.1-.1-.3-.2-.4-.3-.5-.2-.6-.3-.7-.4zm-3.3-2.1l-.4.5c.5.3 1.1.7 1.6 1l.4-.5c-.2-.1-.4-.3-.6-.4-.2-.1-.3-.2-.4-.3-.4-.2-.5-.3-.6-.3zm-1.3-.2c0 .1 0 .1 0 0 0 .1 0 .1 0 0 0 .1 0 .1 0 0 0 .1 0 .1 0 0 0 .4 0 .7-.1 1 0 .3-.1.6-.1.9l.7.1c.1-.7.2-1.3.2-2h-.7zm-.5 3.9c-.1.3-.1.6-.2 1-.1.2-.1.5-.2.7l.6.2c.2-.6.4-1.3.5-2l-.7.1zM139.6 1c0 .1-.1.2-.1.3v.2c-.1.3-.3.5-.4.8l.6.3.9-1.8-1 .2zm-2 3.4l-.2.2c-.3.4-.6.7-.9 1l.5.5c.5-.5.9-1 1.3-1.6l-.7-.1zm-2.7 2.8s-.1 0 0 0c-.1 0-.1 0 0 0-.1 0-.1 0 0 0-.1 0-.1 0 0 0-.1 0-.1 0 0 0-.1 0-.1 0 0 0-.1 0-.1 0 0 0-.1 0-.1 0 0 0-.1 0-.1 0 0 0-.1.1-.1.1 0 0l-.1.1c-.4.3-.7.5-1.1.7-.1 0-.2.1-.2.1l.3.6c.6-.3 1.2-.7 1.8-1.1l-.7-.4zM131.4 9c-.2.1-.4.1-.6.2-.3.1-.6.1-.9.2l.1.6c.7-.1 1.4-.3 2-.5l-.6-.5zm-3.8.8c-.5 0-.9.1-1.4.1h-.2v.7h.3c.6 0 1.2 0 1.8-.1l-.5-.7zm-5.9-.6l-.2.6c.6.2 1.3.4 2 .6l.1-.6c-.6-.2-1.3-.4-1.9-.6zm-3.2-2.3l-.5.5c.5.5 1 1 1.6 1.4l.4-.5h-.1l-.1-.1c-.9-.8-1.1-1-1.3-1.3zm-1.8-3.4l-.6.2c.2.7.5 1.4.8 1.9l.6-.3c-.1-.1-.1-.3-.2-.4L117 4c-.2-.4-.2-.4-.3-.5.1.1.1.1 0 0 .1.1.1.1 0 0 .1 0 .1 0 0 0 .1 0 .1 0 0 0 .1 0 .1 0 0 0 .1 0 .1 0 0 0 .1 0 .1 0 0 0zm-.5-3.9h-.7c0 .7.1 1.4.2 2l.7-.1c-.2-.6-.2-1.2-.2-1.9zm-.4-4c-.1.7-.2 1.4-.2 2h.7c0-.5.1-1 .2-1.5l-.7-.5zm.7-4c-.2.7-.3 1.3-.4 2l.6.1c.1-.6.3-1.3.4-1.9l-.6-.2zm1.1-3.8c-.2.6-.4 1.3-.6 1.9l.6.2c.2-.6.4-1.2.6-1.9l-.6-.2zm1.3-3.8l-.1.3c-.2.5-.4 1-.6 1.6l.6.2c.2-.5.4-1 .5-1.5l-.4-.6zm1.1-3.7c-.1.6-.3 1.2-.5 1.9l.6.2c.1-.3.2-.6.2-.9 0-.1.1-.3.1-.4l-.4-.8zm.6-3.8c-.1.6-.2 1.3-.3 1.9l.6.1v-.1c.1-.4.1-.7.1-1.1v-.3l-.4-.5zm.8-3.8h-.7v1.9h.7v-1.9zm-.4-3.9l-.6.1c.1.6.2 1.3.3 1.9l.7-.1c0-.4-.1-.8-.1-1.3-.2-.3-.2-.5-.3-.6zm-.9-3.9l-.6.2c.2.6.4 1.2.5 1.9l.6-.2c-.1-.3-.2-.7-.3-1 0-.4-.1-.7-.2-.9zm-1.4-3.6l-.6.3c.3.6.5 1.2.8 1.8l.6-.2c-.3-.7-.5-1.3-.8-1.9zm-2-3.5l-.5.4c.4.5.7 1.1 1 1.6l.6-.3c-.3-.5-.7-1.1-1.1-1.7zm-2.4-3.1l-.5.4 1.2 1.5.5-.4c-.3-.3-.5-.7-.8-1-.2-.3-.3-.4-.4-.5zm-2.8-2.7l-.4.5c.5.4 1 .9 1.4 1.3l.5-.5-.1-.1c-.7-.6-1-.9-1.4-1.2zm-3.2-2.4l-.4.6c.5.3 1.1.7 1.6 1.1l.4-.5c-.2-.1-.3-.2-.5-.4-.9-.7-1-.7-1.1-.8.1.1.1.1 0 0 .1.1.1.1 0 0 .1.1.1.1 0 0 .1.1.1.1 0 0 .1.1.1.1 0 0 .1.1.1.1 0 0 .1.1.1.1 0 0 .1.1.1.1 0 0 .1.1.1.1 0 0 .1.1.1.1 0 0zm-2.2-1.3c.1.3.1.6.2.9.1.3.1.7.2 1l.6-.1c-.1-.5-.2-.9-.3-1.4-.2-.1-.5-.2-.7-.4z"/>
</svg>
