<svg id="Layer_1" xmlns="http://www.w3.org/2000/svg" width="850" height="114.6" viewBox="-123.2 43.4 850 114.6">
  <style>
    .st0{fill:#9D8459;} .st1{fill:#906D45;} .st2{fill:#4CA364;} .st3{fill:#038646;} .st4{fill:#CD9C2B;} .st5{fill:#F5C938;} .st6{fill:#FFFFFF;} .st7{fill:#D4BD89;}
  </style>
  <path class="st0" d="M-28.6 80.9c-6.8-11.2-17.8-11.2-24.4 0l-28.5 47.3c-6.8 11.2-1.6 20.5 11.6 20.5h58.2c13.1 0 18.4-9.2 11.6-20.5l-28.5-47.3z"/>
  <path class="st1" d="M-11.8 149.7H-70c-6.6 0-11.7-2.3-14.1-6.5s-1.8-9.6 1.7-15.4l28.5-47.3c3.4-5.8 8.1-8.9 13.1-8.9s9.6 3.1 13.1 8.9L.7 127.8c3.4 5.8 4.1 11.2 1.7 15.4-2.5 4.3-7.4 6.5-14.2 6.5zm-29.1-76.1c-4.2 0-8.3 2.8-11.4 7.9l-28.4 47.3c-3.1 5.1-3.7 9.9-1.7 13.4s6.4 5.5 12.3 5.5h58.2c5.9 0 10.3-2 12.3-5.5s1.4-8.3-1.7-13.4l-28.1-47.3c-3.2-5.1-7.1-7.9-11.5-7.9z"/>
  <path class="st2" d="M-50.1 148.7L-67.9 113h9.9l-17.9-35.7h6l-15.9-31.7-15.8 31.7h5.9l-17.8 35.7h9.9l-17.9 35.7z"/>
  <path class="st3" d="M-48.5 149.7h-74.6l17.8-35.7h-9.9l17.8-35.7h-5.9l17.5-34.9 17.5 34.9h-5.9l17.8 35.7h-9.9l17.8 35.7zm-71.4-1.9h68.2L-69.6 112h9.9l-17.8-35.7h5.9l-14.3-28.5-14.3 28.5h5.9l-17.8 35.7h9.9l-17.7 35.8z"/>
  <path class="st4" d="M-55.4 148.2l-8.1-25.4-7.9 25.4h-9L-96 103.7h13.2l7 20.6 6.4-20.6h12l6.2 20.6 7.2-20.6h13.1l-15.5 44.5z"/>
  <path class="st4" d="M-33 105.1l-14.4 41.7h-6.9l-9-29-9 29h-6.9l-14.5-41.7h10l8.2 23.9 7.3-23.9h9.7l7.3 23.9 8.3-23.9h9.9m4.3-3h-16.4l-.7 2-5.2 15.4-4.7-15.3-.7-2.1h-14.3l-.7 2.1-4.7 15.3-5.2-15.3-.7-2h-16.3l1.4 4 14.8 41.5.7 2h11.1l.7-2.1 6.2-19.9 6.2 19.9.7 2.1h11.1l.7-2 14.5-41.7 1.5-3.9z"/>
  <path class="st4" d="M-29.5 103.7h12.3v44.6h-12.3z"/>
  <path class="st4" d="M-18.7 105.1v41.7H-28v-41.7h9.3m2.9-3H-31v47.7h15.3v-47.7h-.1zm5.8 46.1v-44.5H2.3V137H20v11.2z"/>
  <path class="st4" d="M.8 105.1v33.3h17.8v8.3h-27V105H.8m2.9-2.9h-15.3v47.7h33v-14.3H3.7v-33.4zm20.1 46.1v-44.5H40c7.8 0 13.8 2 18.1 5.8 4.2 4 6.5 9.3 6.5 16.2s-2.1 12.4-6.2 16.4c-4.1 4.1-10.5 6.1-18.8 6.1H23.8zM40.5 137c3.8 0 6.8-1 8.8-2.8 2-1.8 3-4.5 3-8.2s-1-6.5-3-8.3c-2-2-5.2-2.8-9.5-2.8h-3.7v22.3h4.4v-.2z"/>
  <path class="st4" d="M40 105.1c7.5 0 13.1 1.8 17.1 5.5s5.9 8.6 5.9 15.1-2 11.6-5.8 15.4c-3.8 3.8-9.7 5.6-17.7 5.6H25.3V105H40m-5.3 33.6h5.9c4.2 0 7.5-1.1 9.7-3.2 2.3-2.1 3.4-5.2 3.4-9.3 0-4.1-1.1-7.2-3.4-9.5s-5.8-3.2-10.5-3.2h-5.2v25.2m5.4-36.5H22.3v47.7h17.3c8.8 0 15.4-2.1 19.8-6.5s6.6-10.2 6.6-17.5c0-7.3-2.3-13.1-6.9-17.4-4.5-4.1-10.9-6.3-19.1-6.3zm-2.4 14.2h2.3c4 0 6.8.8 8.5 2.4 1.7 1.7 2.5 4 2.5 7.3 0 3.2-.8 5.6-2.5 7.2-1.7 1.6-4.4 2.4-7.8 2.4h-3v-19.3zm32 31.9v-44.5h33V115H81.8v5.5h18.7v10.9H81.8v5.6h21.4v11.2z"/>
  <path class="st4" d="M101.1 105.1v8.3H80.3v8.6h18.6v7.9H80.3v8.6h21.3v8.2H71V105h30.1m2.9-2.9H68.1v47.7h36.6v-14.2H83.4v-2.7h18.7V119H83.4v-2.7h20.8V102h-.2zm30.2 46.1l-9.2-13.3h-4v13.3h-12.4v-44.5h17.2c6.9 0 11.7 1.1 14.7 3.5 3.1 2.4 4.7 6.4 4.7 11.7 0 6.5-2.4 11.2-7.2 13.6l11.2 15.7h-15zm-8.1-24.2c3.7 0 4.9-.7 5.5-1.1.8-.7 1.3-2 1.3-3.8 0-1.7-.4-2.8-1.1-3.4-.7-.4-2.1-1-5.4-1h-5.5v9.3h5.2z"/>
  <path class="st4" d="M125.8 105.1c6.5 0 11 1.1 13.8 3.2s4.1 5.6 4.1 10.6c0 6.6-2.7 11-7.9 12.9l10.6 14.8H135l-9.2-13.3h-6.5v13.3H110v-41.5h15.8m-6.5 20.3h6.8c3.1 0 5.4-.6 6.5-1.6 1.1-1 1.7-2.7 1.7-4.9 0-2.3-.6-3.8-1.8-4.7-1.1-.8-3.2-1.3-6.2-1.3h-6.9l-.1 12.5m6.5-23.3H107v47.7h15.3v-13.3h1.8l8.3 12 .8 1.3H152l-3.4-4.7L140 133c3.4-2.3 6.5-6.5 6.5-14 0-5.8-1.8-10.2-5.2-12.9-3.1-2.7-8.3-4-15.5-4zm-3.6 14h4c3.4 0 4.4.6 4.5.7.3.1.6.8.6 2.1 0 1-.1 2.1-.7 2.7-.1.1-1 .8-4.5.8h-3.8v-6.3h-.1zm59.5 32.1l-17.7-23v23h-12.2v-44.5h11l18.1 23.9v-23.9h12.2v44.5z"/>
  <path class="st4" d="M191.7 105.1v41.7h-9.3l-19.8-26.1v26.1h-9.3v-41.7h8.8l20.5 26.8v-26.8h9.1m3-3h-15.3V123l-15.1-19.8-.8-1.1h-13.2v47.7h15.3v-20.2l14.4 19.1.8 1.1h13.7v-47.7h.2zm5.6 46.1v-44.5h33.1V115h-20.8v5.5h18.7v10.9h-18.7v5.6h21.5v11.2z"/>
  <path class="st4" d="M231.8 105.1v8.3H211v8.6h18.6v7.9H211v8.6h21.3v8.2h-30.6V105h30.1m3-2.9h-35.9v47.7h36.6v-14.2h-21.4v-2.7h18.7V119h-18.7v-2.7H235V102h-.2zm20.8 46.6c-6.9 0-13.3-2.5-18.8-7.8l-1-1 7.3-9 1.1 1c4.2 3.7 8.1 5.5 11.4 5.5 1.4 0 2.4-.3 3.1-.8.6-.4.8-1 .8-1.8 0-.7-.3-1.3-1-1.7-.6-.4-2.1-1.1-5.6-2-5.1-1.3-8.8-2.8-11.2-4.8-2.5-2.1-4-5.5-4-9.9s1.7-7.9 4.8-10.3c3.1-2.4 6.9-3.5 11.6-3.5 3 0 5.9.6 8.8 1.6 3 1 5.5 2.4 7.8 4.4l1 .8-6.4 9.2-1.3-1c-3.4-2.5-6.8-3.8-10.3-3.8-1.1 0-2.1.3-2.7.7-.6.4-.8 1-.8 1.8 0 .7.3 1.1 1 1.7.6.3 2.1 1.1 7.1 2.3 4.1 1 7.5 2.5 9.9 4.7 2.5 2.3 3.8 5.5 3.8 9.6 0 4.2-1.6 7.6-4.8 10.2-2.6 2.7-6.7 3.9-11.6 3.9z"/>
  <path class="st4" d="M254.4 104.3c2.8 0 5.5.4 8.3 1.4 2.8 1 5.2 2.3 7.2 4.1l-4.7 6.8c-3.7-2.7-7.3-4.1-11.2-4.1-1.6 0-2.8.4-3.7 1.1s-1.3 1.7-1.3 3 .6 2.1 1.7 2.8c1.1.7 3.7 1.6 7.6 2.5 4 1 7.1 2.4 9.2 4.4 2.1 2 3.2 4.8 3.2 8.5s-1.4 6.8-4.2 9-6.5 3.5-11 3.5c-6.6 0-12.6-2.4-17.8-7.3l5.5-6.8c4.5 4 8.6 5.9 12.4 5.9 1.7 0 3.1-.4 4-1.1 1-.7 1.4-1.7 1.4-3s-.6-2.3-1.6-3c-1-.7-3.1-1.4-6.1-2.3-4.8-1.1-8.3-2.7-10.6-4.5-2.3-1.8-3.4-4.8-3.4-8.8s1.4-7.1 4.2-9.2c3.2-2 6.7-2.9 10.9-2.9m0-3c-4.9 0-9 1.3-12.4 3.8-3.7 2.7-5.4 6.6-5.4 11.4s1.6 8.6 4.4 11c.6.4 1.3 1 1.8 1.4l-2 2.4-5.5 6.8-1.8 2.1 2.1 1.8c5.8 5.4 12.4 8.1 19.8 8.1 5.2 0 9.6-1.4 13-4.2 3.5-3 5.2-6.8 5.2-11.3 0-4.7-1.4-8.2-4.2-10.7-2.5-2.3-6.1-4-10.5-5.1-5.1-1.3-6.4-2-6.6-2.1-.3-.1-.3-.3-.3-.4 0-.4.1-.4.3-.6.4-.3 1.1-.4 1.8-.4 3.2 0 6.2 1.1 9.3 3.5l2.5 1.8 1.8-2.5 4.7-6.8 1.6-2.3-2.1-1.7c-2.4-2-5.1-3.5-8.2-4.5-2.9-1.1-6.2-1.5-9.3-1.5zm1.5 34.7c-3.1 0-6.6-1.7-10.5-5.1l-2.1-1.8c2.4 1.4 5.6 2.7 9.7 3.7 3.7.8 4.8 1.6 5.1 1.7.3.1.3.3.3.6 0 .4-.1.4-.3.6-.6.2-1.3.3-2.2.3zm37.7 12.7c-6.9 0-13.3-2.5-18.8-7.8l-1-1 7.3-9 1.1 1c4.2 3.7 8.1 5.5 11.4 5.5 1.4 0 2.4-.3 3.1-.8.6-.4.8-1 .8-1.8 0-.7-.3-1.3-1-1.7-.6-.4-2.1-1.1-5.6-2-5.1-1.3-8.8-2.8-11.2-4.8-2.5-2.1-4-5.5-4-9.9s1.7-7.9 4.8-10.3c3.1-2.4 6.9-3.5 11.6-3.5 3 0 5.9.6 8.8 1.6 3 1 5.5 2.4 7.8 4.4l1 .8-6.4 9.2-1.3-1c-3.4-2.5-6.8-3.8-10.3-3.8-1.1 0-2.1.3-2.7.7-.6.4-.8 1-.8 1.8 0 .7.3 1.1 1 1.7.6.3 2.1 1.1 7.1 2.3 4.1 1 7.5 2.5 9.9 4.7 2.5 2.3 3.8 5.5 3.8 9.6 0 4.2-1.6 7.6-4.8 10.2-2.6 2.7-6.7 3.9-11.6 3.9z"/>
  <path class="st4" d="M292.4 104.3c2.8 0 5.5.4 8.3 1.4 2.8 1 5.2 2.3 7.2 4.1l-4.7 6.8c-3.7-2.7-7.3-4.1-11.2-4.1-1.6 0-2.8.4-3.7 1.1s-1.3 1.7-1.3 3 .6 2.1 1.7 2.8c1.1.7 3.7 1.6 7.6 2.5 4 1 7.1 2.4 9.2 4.4 2.1 2 3.2 4.8 3.2 8.5s-1.4 6.8-4.2 9-6.5 3.5-11 3.5c-6.6 0-12.6-2.4-17.8-7.3l5.5-6.8c4.5 4 8.6 5.9 12.4 5.9 1.7 0 3.1-.4 4-1.1 1-.7 1.4-1.7 1.4-3s-.6-2.3-1.6-3c-1-.7-3.1-1.4-6.1-2.3-4.8-1.1-8.3-2.7-10.6-4.5s-3.4-4.8-3.4-8.8 1.4-7.1 4.2-9.2 6.7-2.9 10.9-2.9m0-3c-4.9 0-9 1.3-12.4 3.8-3.7 2.7-5.4 6.6-5.4 11.4s1.6 8.6 4.4 11c.6.4 1.3 1 1.8 1.4l-2 2.4-5.5 6.8-1.8 2.1 2.1 1.8c5.8 5.4 12.4 8.1 19.8 8.1 5.2 0 9.6-1.4 13-4.2 3.5-3 5.2-6.8 5.2-11.3 0-4.7-1.4-8.2-4.2-10.7-2.5-2.3-6.1-4-10.5-5.1-5.1-1.3-6.4-2-6.6-2.1-.3-.1-.3-.3-.3-.4 0-.4.1-.4.3-.6.4-.3 1.1-.4 1.8-.4 3.2 0 6.2 1.1 9.3 3.5l2.5 1.8 1.8-2.5 4.7-6.8 1.6-2.3-2.1-1.7c-2.4-2-5.1-3.5-8.2-4.5-3-1.1-6.2-1.5-9.3-1.5zm1.4 34.7c-3.1 0-6.6-1.7-10.5-5.1l-2.1-1.8c2.4 1.4 5.6 2.7 9.7 3.7 3.7.8 4.8 1.6 5.1 1.7.3.1.3.3.3.6 0 .4-.1.4-.3.6-.5.2-1.2.3-2.2.3zm53.4 12.7c-6.9 0-13.3-2.5-18.8-7.8l-1-1 7.3-9 1.1 1c4.2 3.7 8.1 5.5 11.4 5.5 1.4 0 2.4-.3 3.1-.8.6-.4.8-1 .8-1.8 0-.7-.3-1.3-1-1.7-.6-.4-2.1-1.1-5.6-2-5.1-1.3-8.8-2.8-11.2-4.8-2.5-2.1-4-5.5-4-9.9s1.7-7.9 4.8-10.3c3.1-2.4 6.9-3.5 11.6-3.5 3 0 5.9.6 8.8 1.6 3 1 5.5 2.4 7.8 4.4l1 .8-6.4 9.2-1.3-1c-3.4-2.5-6.8-3.8-10.3-3.8-1.1 0-2.1.3-2.7.7-.6.4-.8 1-.8 1.8 0 .7.3 1.1 1 1.7.6.3 2.1 1.1 7.1 2.3 4.1 1 7.5 2.5 9.9 4.7 2.5 2.3 3.8 5.5 3.8 9.6 0 4.2-1.6 7.6-4.8 10.2-2.5 2.7-6.6 3.9-11.6 3.9z"/>
  <path class="st4" d="M346.1 104.3c2.8 0 5.5.4 8.3 1.4 2.8 1 5.2 2.3 7.2 4.1l-4.7 6.8c-3.7-2.7-7.3-4.1-11.2-4.1-1.6 0-2.8.4-3.7 1.1s-1.3 1.7-1.3 3 .6 2.1 1.7 2.8 3.7 1.6 7.6 2.5c4 1 7.1 2.4 9.2 4.4 2.1 2 3.2 4.8 3.2 8.5s-1.4 6.8-4.2 9c-2.8 2.3-6.5 3.5-11 3.5-6.6 0-12.6-2.4-17.8-7.3l5.5-6.8c4.5 4 8.6 5.9 12.4 5.9 1.7 0 3.1-.4 4-1.1 1-.7 1.4-1.7 1.4-3s-.6-2.3-1.6-3c-1-.7-3.1-1.4-6.1-2.3-4.8-1.1-8.3-2.7-10.6-4.5s-3.4-4.8-3.4-8.8 1.4-7.1 4.2-9.2 6.7-2.9 10.9-2.9m0-3c-4.9 0-9 1.3-12.4 3.8-3.7 2.7-5.4 6.6-5.4 11.4s1.6 8.6 4.4 11c.6.4 1.3 1 1.8 1.4l-2 2.4-5.5 6.8-1.8 2.1 2.1 1.8c5.8 5.4 12.4 8.1 19.8 8.1 5.2 0 9.6-1.4 13-4.2 3.5-3 5.2-6.8 5.2-11.3 0-4.7-1.4-8.2-4.2-10.7-2.5-2.3-6.1-4-10.5-5.1-5.1-1.3-6.4-2-6.6-2.1-.3-.1-.3-.3-.3-.4 0-.4.1-.4.3-.6.4-.3 1.1-.4 1.8-.4 3.2 0 6.2 1.1 9.3 3.5l2.5 1.8 1.8-2.5 4.7-6.8 1.6-2.3-2.1-1.7c-2.4-2-5.1-3.5-8.2-4.5-3.1-1.1-6.2-1.5-9.3-1.5zm1.4 34.7c-3.1 0-6.6-1.7-10.5-5.1l-2.1-1.8c2.4 1.4 5.6 2.7 9.7 3.7 3.7.8 4.8 1.6 5.1 1.7.3.1.3.3.3.6 0 .4-.1.4-.3.6-.5.2-1.2.3-2.2.3zm51.2 12.2l-3.8-9h-15.5l-3.8 9h-13.1l19.2-44.6h10.9l19.2 44.6h-13.1zm-8.8-20.1l-3-6.8-3 6.8h6z"/>
  <path class="st4" d="M391.4 105.1l17.9 41.7h-9.9l-3.8-9h-17.4l-3.8 9h-9.9l17.9-41.7h9m-9.6 24.6h10.5l-5.2-12.1-5.3 12.1m11.6-27.6h-12.9l-.7 1.8-17.9 41.7-1.8 4.1h16.4l.7-1.8 3.1-7.2h13.6l3.1 7.2.7 1.8h16.4l-1.8-4.1-18-41.6-.9-1.9zm-7 24.6l.7-1.6.7 1.6h-1.4z"/>
  <path class="st4" d="M412.8 148.2v-44.5h31.5v11.1h-19.2v6h18.3v11.1h-18.3v16.3z"/>
  <path class="st4" d="M442.9 105.1v8.2h-19.4v9h18.4v8.2h-18.4v16.2h-9.3V105h28.7m2.9-2.9h-34.5v47.7h15.3v-16.3h18.3v-14.2h-18.4v-3h19.2V102h.1zm3.4 46.1v-44.5h32.9V115h-20.6v5.5h18.6v10.9h-18.6v5.6h21.3v11.2z"/>
  <path class="st4" d="M480.7 105.1v8.3H460v8.6h18.6v7.9H460v8.6h21.5v8.2h-30.6V105h29.8m3-2.9h-35.9v47.7h36.6v-14.2H463v-2.7h18.5V119h-18.7v-2.7h20.8v-14.2h.1zm12.8 46.1v-33.5h-11.8v-11h35.8v11h-11.8v33.5z"/>
  <path class="st4" d="M519 105.1v8.1h-11.7v33.6H498v-33.6h-11.7v-8.1H519m3-3h-38.9v14.1h11.8v33.6h15.3v-33.6H522v-14.1z"/>
  <path class="st4" d="M533 148.2v-17.5l-15.6-27H531l8 14 8.2-14h13.5l-15.4 27v17.5z"/>
  <path class="st4" d="M558.1 105.1l-14.4 25.1v16.4h-9.3v-16.2L520 105.2h10l9 15.5 9-15.5h10m5.2-3.1h-16.8l-.8 1.4-6.4 11-6.4-11-.8-1.4h-16.8l2.5 4.5 14 24.4v18.7H547V131l14-24.4 2.2-4.5zm46.9 54.1c-2.7 0-5.2-.7-7.8-2.1-2.3-1.3-4.1-3.1-5.5-5.4-6.2-.1-11.4-2.4-15.7-6.6-4.5-4.4-6.8-9.9-6.8-16.4s2.3-12 6.8-16.4c4.5-4.4 10-6.6 16.5-6.6s12.1 2.3 16.5 6.6c4.5 4.4 6.8 9.9 6.8 16.4 0 4.7-1.1 8.8-3.5 12.4-2 3.1-4.5 5.5-7.5 7.2.4.3 1 .3 1.6.3.7 0 1.3-.1 2-.3.7-.1 1.1-.4 1.4-.7.8-.7 1.4-1.4 1.8-2l1-2 7.1 8.5-.8 1c-3.7 4.2-8.4 6.1-13.9 6.1zm-12.3-42.3c-3.1 0-5.5 1.1-7.6 3.4-2.1 2.4-3.2 5.1-3.2 8.5s1 6.1 3.2 8.5c2.1 2.3 4.7 3.4 7.6 3.4 3.1 0 5.5-1.1 7.6-3.4 2.1-2.4 3.2-5.1 3.2-8.5s-1-6.1-3.2-8.5c-2.1-2.3-4.5-3.4-7.6-3.4z"/>
  <path class="st4" d="M597.8 104.3c6.2 0 11.3 2.1 15.5 6.2s6.4 9.2 6.4 15.3c0 4.4-1.1 8.2-3.2 11.7-2.3 3.4-5.2 6.1-8.9 7.8.4.6 1 1.1 1.7 1.6.7.4 1.6.6 2.4.6.8 0 1.7-.1 2.4-.4.8-.3 1.4-.6 1.8-1 1-.8 1.8-1.7 2.3-2.4l4.8 5.8c-3.4 3.7-7.6 5.4-12.9 5.4-2.4 0-4.7-.7-7.1-2-2.3-1.3-4.1-3.1-5.2-5.5-6.2 0-11.3-2.1-15.5-6.2-4.2-4.1-6.4-9.2-6.4-15.3 0-6.1 2.1-11.2 6.4-15.3 4.1-4.4 9.3-6.3 15.5-6.3m0 34.8c3.5 0 6.4-1.3 8.8-4 2.4-2.5 3.5-5.8 3.5-9.5s-1.1-6.9-3.5-9.5c-2.4-2.7-5.4-4-8.8-4s-6.4 1.3-8.8 4c-2.4 2.7-3.5 5.8-3.5 9.5s1.1 6.9 3.5 9.5c2.4 2.6 5.3 4 8.8 4m0-37.8c-6.9 0-12.9 2.4-17.7 7.1s-7.2 10.6-7.2 17.5 2.4 12.9 7.2 17.5c4.4 4.2 9.7 6.6 15.8 6.9 1.4 2.1 3.2 4 5.5 5.2 2.7 1.6 5.6 2.4 8.5 2.4 5.9 0 11-2.1 15-6.4l1.8-2-1.7-2-4.8-5.8-1.8-2.1c.1-.1.1-.3.3-.4 2.5-4 3.8-8.3 3.8-13.3 0-6.9-2.4-12.9-7.2-17.5-4.6-4.9-10.6-7.1-17.5-7.1zm0 34.9c-2.7 0-4.8-1-6.6-3-1.8-2.1-2.8-4.5-2.8-7.5s.8-5.4 2.8-7.5c1.8-2 4-3 6.6-3s4.8 1 6.6 3c1.8 2.1 2.8 4.5 2.8 7.5s-.8 5.4-2.8 7.5c-1.8 2-4.1 3-6.6 3zm47 12.4c-5.5 0-10.2-1.8-13.8-5.4-3.7-3.5-5.5-8.6-5.5-15v-24.6h12.3V128c0 3 .7 5.4 2 6.9 1.3 1.6 3 2.4 5.1 2.4 2.1 0 3.8-.7 5.1-2.3 1.3-1.7 2-4 2-6.9v-24.6h12.3v24.7c0 6.4-1.8 11.4-5.5 15-3.8 3.7-8.5 5.4-14 5.4z"/>
  <path class="st4" d="M662.6 105.1v23.3c0 6.1-1.7 10.6-4.9 13.8-3.4 3.2-7.6 4.8-12.9 4.8-5.2 0-9.5-1.7-12.9-4.9-3.4-3.2-5.1-7.9-5.1-13.8v-23.2h9.3v23c0 3.4.7 5.9 2.3 7.9s3.7 2.8 6.2 2.8c2.7 0 4.7-1 6.2-2.8 1.6-2 2.3-4.5 2.3-7.9v-23h9.5m3-3h-15.3v26c0 2.7-.6 4.7-1.7 6.1-1 1.3-2.1 1.7-4 1.7-1.7 0-3-.6-4-1.8-1.1-1.4-1.7-3.4-1.7-6.1v-25.9h-15.2v26.3c0 6.8 2 12.1 5.9 16 4 3.8 8.9 5.6 14.8 5.6s11-2 14.8-5.6c4-3.8 5.9-9.2 5.9-16v-26.3h.5zm5.1 1.6H683v44.6h-12.3z"/>
  <path class="st4" d="M681.4 105.1v41.7h-9.3v-41.7h9.3m3.1-3h-15.3v47.7h15.3v-47.7zm3.4 46.1v-8.4l20.1-25.1h-19.4v-11h36.7v8.5l-20.2 25h20.5v11z"/>
  <path class="st4" d="M723.8 105.1v6.5L702 138.7h22v8.1h-34.7v-6.4l21.8-27.3h-21V105l33.7.1m3-3H687v14.1h17.8l-17.9 22.3-.7.8v10.4h40.7v-14.1h-18.8l17.8-22.2.7-.8v-10.5h.2z"/>
  <path class="st5" d="M-75.6 129.1l7.3-23.9h9.7l7.3 23.9 8.3-23.9h10l-14.5 41.5h-6.9l-9-29-9 29h-6.9L-93.8 105h10l8.2 24.1z"/>
  <path class="st6" d="M-47.1 147.2h-7.6l-8.8-27.8-8.6 27.8h-7.6l-.1-.3-14.7-42.2h11l7.8 22.9 7.1-22.9h10.5l6.9 22.9 7.9-22.9h11.2l-15 42.5zm-6.9-1h6.2l14.1-40.5h-8.9l-8.6 25-7.6-25h-8.9l-7.8 25-8.6-25h-9l14.1 40.5h6.2l9.5-30.1 9.3 30.1z"/>
  <path class="st5" d="M-28 105.1h9.3v41.7H-28v-41.7z"/>
  <path class="st6" d="M-18.2 147.2h-10.3v-42.5h10.3v42.5zm-9.3-1h8.3v-40.5h-8.3v40.5z"/>
  <path class="st5" d="M-8.4 146.8v-41.7H.9v33.3h17.8v8.3c0 .1-27.1.1-27.1.1z"/>
  <path class="st6" d="M19 147.2H-9v-42.5H1.3V138h17.8v9.2H19zm-27-1h26v-7.3H.3v-33.2H-8v40.5z"/>
  <path class="st5" d="M57.1 110.6c4 3.7 5.9 8.6 5.9 15.1s-2 11.6-5.8 15.4c-3.8 3.8-9.7 5.6-17.7 5.6H25.3V105H40c7.5.1 13.2 1.9 17.1 5.6zm-6.8 24.7c2.3-2.1 3.4-5.2 3.4-9.3 0-4.1-1.1-7.2-3.4-9.5s-5.8-3.2-10.5-3.2h-5.2v25.3h5.9c4.2 0 7.6-1.2 9.8-3.3z"/>
  <path class="st6" d="M39.6 147.2H24.9v-42.5h15.3c7.5 0 13.4 1.8 17.4 5.5 4.1 3.7 6.1 8.9 6.1 15.5s-2 11.9-5.9 15.7c-4.2 4-10.3 5.8-18.2 5.8zm-13.8-1h13.7c7.8 0 13.6-1.8 17.4-5.5 3.8-3.7 5.6-8.8 5.6-15 0-6.4-2-11.3-5.8-14.8s-9.5-5.4-16.8-5.4H25.6v40.7h.2zm14.7-7.2h-6.4v-26.3h5.6c4.8 0 8.5 1.1 10.9 3.4 2.4 2.3 3.5 5.6 3.5 9.7 0 4.2-1.3 7.5-3.5 9.7-2.4 2.4-5.8 3.5-10.1 3.5zm-5.4-1h5.4c4.1 0 7.2-1 9.5-3.1 2.1-2 3.2-5.1 3.2-9 0-4-1.1-6.9-3.2-9s-5.6-3.1-10.2-3.1h-4.7V138z"/>
  <path class="st5" d="M101.1 105.1v8.3H80.3v8.6h18.6v7.9H80.3v8.6h21.3v8.2H71V105h30.1z"/>
  <path class="st6" d="M102.2 147.2H70.5v-42.5h30.9v9.3H80.7v7.6h18.6v8.9H80.7v7.5H102v9.2h.2zm-30.7-1h29.7V139H79.9v-9.6h18.6v-6.9H79.9v-9.6h20.8v-7.3h-29v40.7h-.2z"/>
  <path class="st5" d="M143.7 118.9c0 6.6-2.7 11-7.9 12.9l10.6 14.8H135l-9.2-13.3h-6.5v13.3H110v-41.5h15.8c6.5 0 11 1.1 13.8 3.2 2.8 2.3 4.1 5.8 4.1 10.6zm-11.2 5c1.1-1 1.7-2.7 1.7-4.9 0-2.3-.6-3.8-1.8-4.7-1.1-.8-3.2-1.3-6.2-1.3h-6.9v12.3h6.8c3.2.1 5.3-.4 6.4-1.4z"/>
  <path class="st6" d="M147.4 147.2h-12.7l-9.2-13.3h-5.6v13.3h-10.3v-42.5h16.2c6.5 0 11.3 1.1 14.1 3.4s4.4 5.9 4.4 10.9c0 6.6-2.5 11-7.6 13.1l10.7 15.1zm-12.2-1h10.2l-10.3-14.7.6-.3c5.1-1.8 7.6-5.9 7.6-12.4 0-4.7-1.3-8.1-4-10.2-2.7-2.1-7.2-3.1-13.6-3.1h-15.3V146h8.3v-13.3h7.2l9.3 13.5zm-9.1-20.2h-7.3v-13.4h7.5c3.1 0 5.2.4 6.5 1.3 1.3 1 2 2.7 2 5.1s-.7 4.1-1.8 5.2c-1.3 1.2-3.6 1.8-6.9 1.8zm-6.3-1h6.4c3 0 5.1-.4 6.2-1.4 1-1 1.6-2.4 1.6-4.5s-.6-3.5-1.6-4.2c-1.1-.7-3.1-1.1-5.9-1.1h-6.6V125z"/>
  <path class="st5" d="M182.4 105.1h9.3v41.7h-9.3l-19.8-26.1v26.1h-9.3v-41.7h8.8l20.5 26.8v-26.8h-.2z"/>
  <path class="st6" d="M192.2 147.2h-10l-.2-.2-18.9-24.9v25.1h-10.3v-42.7h9.5l19.6 25.8v-25.8h10.3v42.7zm-9.5-1h8.5v-40.5h-8.3v27.7l-21.2-27.7h-7.9v40.5h8.3v-27l20.6 27z"/>
  <path class="st5" d="M231.8 105.1v8.3H211v8.6h18.6v7.9H211v8.6h21.3v8.2h-30.6V105h30.1z"/>
  <path class="st6" d="M233.1 147.2h-31.6v-42.5h30.9v9.3h-20.8v7.6h18.6v8.9h-18.6v7.5H233v9.2h.1zm-30.6-1h29.7V139h-21.3v-9.6h18.6v-6.9h-18.6v-9.6h20.6v-7.3h-29v40.6z"/>
  <path class="st5" d="M250.5 113.4c-.8.7-1.3 1.7-1.3 3s.6 2.1 1.7 2.8c1.1.7 3.7 1.6 7.6 2.5 4 1 7.1 2.4 9.2 4.4 2.1 2 3.2 4.8 3.2 8.5s-1.4 6.8-4.2 9-6.5 3.5-11 3.5c-6.6 0-12.6-2.4-17.8-7.3l5.5-6.8c4.5 4 8.6 5.9 12.4 5.9 1.7 0 3.1-.4 4-1.1 1-.7 1.4-1.7 1.4-3s-.6-2.3-1.6-3c-1-.7-3.1-1.4-6.1-2.3-4.8-1.1-8.3-2.7-10.6-4.5-2.3-1.8-3.4-4.8-3.4-8.8s1.4-7.1 4.2-9.2c2.8-2.1 6.4-3.2 10.6-3.2 2.8 0 5.5.4 8.3 1.4 2.8 1 5.2 2.3 7.2 4.1l-4.7 6.8c-3.7-2.7-7.3-4.1-11.2-4.1-1.3.3-2.4.7-3.4 1.4z"/>
  <path class="st6" d="M255.6 147.8c-6.6 0-12.9-2.5-18.1-7.5l-.3-.3 6.2-7.5.4.3c4.4 3.8 8.5 5.8 12.1 5.8 1.6 0 2.8-.3 3.7-1 .8-.7 1.3-1.4 1.3-2.5s-.4-2-1.3-2.5c-1-.7-3-1.4-5.9-2.1-4.9-1.1-8.5-2.7-10.9-4.5-2.4-2-3.5-4.9-3.5-9s1.6-7.3 4.5-9.5c3-2.3 6.6-3.2 10.9-3.2 2.8 0 5.6.4 8.5 1.4s5.4 2.4 7.5 4.1l.3.3-5.2 7.6-.4-.3c-3.5-2.7-7.2-4-10.9-4-1.4 0-2.5.3-3.4 1-.8.7-1.1 1.4-1.1 2.5 0 1 .4 1.8 1.4 2.4 1 .7 3.5 1.6 7.3 2.4 4 1 7.2 2.5 9.5 4.5s3.4 5.1 3.4 8.9c0 3.8-1.4 7.1-4.4 9.5-3 1.9-7 3.2-11.6 3.2zm-17.1-8c5.1 4.5 10.9 6.9 17.1 6.9 4.4 0 8.1-1.1 10.7-3.4 2.7-2.3 4-5.1 4-8.8 0-3.5-1-6.4-3.1-8.2-2.1-1.8-5.1-3.2-9-4.2-4.1-1-6.5-1.8-7.8-2.5-1.3-.8-1.8-2-1.8-3.2 0-1.4.6-2.4 1.6-3.2 1-.8 2.3-1.3 4-1.3 3.8 0 7.5 1.3 11 4l4.1-5.9c-2-1.6-4.2-2.8-6.8-3.7-2.7-1-5.5-1.4-8.2-1.4-4.1 0-7.6 1-10.3 3.1-2.7 2-4.1 4.9-4.1 8.8s1.1 6.6 3.2 8.3c2.1 1.8 5.6 3.2 10.5 4.4 3.1.8 5.2 1.6 6.4 2.3 1.1.8 1.7 2 1.7 3.4s-.6 2.5-1.7 3.4c-1 .8-2.5 1.3-4.4 1.3-3.8 0-7.9-2-12.4-5.6l-4.7 5.5z"/>
  <path class="st5" d="M288.5 113.4c-.8.7-1.3 1.7-1.3 3s.6 2.1 1.7 2.8 3.7 1.6 7.6 2.5c4 1 7.1 2.4 9.2 4.4 2.1 2 3.2 4.8 3.2 8.5s-1.4 6.8-4.2 9-6.5 3.5-11 3.5c-6.6 0-12.6-2.4-17.8-7.3l5.5-6.8c4.5 4 8.6 5.9 12.4 5.9 1.7 0 3.1-.4 4-1.1 1-.7 1.4-1.7 1.4-3s-.6-2.3-1.6-3c-1-.7-3.1-1.4-6.1-2.3-4.8-1.1-8.3-2.7-10.6-4.5-2.3-1.8-3.4-4.8-3.4-8.8s1.4-7.1 4.2-9.2c2.8-2.1 6.4-3.2 10.6-3.2 2.8 0 5.5.4 8.3 1.4 2.8 1 5.2 2.3 7.2 4.1l-4.7 6.8c-3.7-2.7-7.3-4.1-11.2-4.1-1.3.3-2.4.7-3.4 1.4z"/>
  <path class="st6" d="M293.6 147.8c-6.6 0-12.9-2.5-18.1-7.5l-.3-.3 6.2-7.5.4.3c4.4 3.8 8.5 5.8 12.1 5.8 1.6 0 2.8-.3 3.7-1 .8-.7 1.3-1.4 1.3-2.5s-.4-2-1.3-2.5c-1-.7-3-1.4-5.9-2.1-4.9-1.1-8.5-2.7-10.9-4.5-2.4-2-3.5-4.9-3.5-9s1.6-7.3 4.5-9.5c3-2.3 6.6-3.2 10.9-3.2 2.8 0 5.6.4 8.5 1.4s5.4 2.4 7.5 4.1l.3.3-5.2 7.6-.4-.3c-3.5-2.7-7.2-4-10.9-4-1.4 0-2.5.3-3.4 1-.8.7-1.1 1.4-1.1 2.5 0 1 .4 1.8 1.4 2.4 1 .7 3.5 1.6 7.3 2.4 4 1 7.2 2.5 9.5 4.5s3.4 5.1 3.4 8.9c0 3.8-1.4 7.1-4.4 9.5-3.2 1.9-7 3.2-11.6 3.2zm-17.1-8c5.1 4.5 10.9 6.9 17.1 6.9 4.4 0 8.1-1.1 10.7-3.4 2.7-2.3 4-5.1 4-8.8 0-3.5-1-6.4-3.1-8.2-2.1-1.8-5.1-3.2-9-4.2-4.1-1-6.5-1.8-7.8-2.5-1.3-.8-1.8-2-1.8-3.2 0-1.4.6-2.4 1.6-3.2 1-.8 2.3-1.3 4-1.3 3.8 0 7.5 1.3 11 4l4.1-5.9c-2-1.6-4.2-2.8-6.8-3.7-2.7-1-5.5-1.4-8.2-1.4-4.1 0-7.6 1-10.3 3.1-2.7 2-4.1 4.9-4.1 8.8s1.1 6.6 3.2 8.3c2.1 1.8 5.6 3.2 10.5 4.4 3.1.8 5.2 1.6 6.4 2.3 1.1.8 1.7 2 1.7 3.4s-.6 2.5-1.7 3.4c-1 .8-2.5 1.3-4.4 1.3-3.8 0-7.9-2-12.4-5.6l-4.7 5.5z"/>
  <path class="st5" d="M342.2 113.4c-.8.7-1.3 1.7-1.3 3s.6 2.1 1.7 2.8c1.1.7 3.7 1.6 7.6 2.5 4 1 7.1 2.4 9.2 4.4 2.1 2 3.2 4.8 3.2 8.5s-1.4 6.8-4.2 9-6.5 3.5-11 3.5c-6.6 0-12.6-2.4-17.8-7.3l5.5-6.8c4.5 4 8.6 5.9 12.4 5.9 1.7 0 3.1-.4 4-1.1 1-.7 1.4-1.7 1.4-3s-.6-2.3-1.6-3c-1-.7-3.1-1.4-6.1-2.3-4.8-1.1-8.3-2.7-10.6-4.5-2.3-1.8-3.4-4.8-3.4-8.8s1.4-7.1 4.2-9.2 6.4-3.2 10.6-3.2c2.8 0 5.5.4 8.3 1.4 2.8 1 5.2 2.3 7.2 4.1l-4.7 6.8c-3.7-2.7-7.3-4.1-11.2-4.1-1.3.3-2.5.7-3.4 1.4z"/>
  <path class="st6" d="M347.2 147.8c-6.6 0-12.9-2.5-18.1-7.5l-.3-.3 6.2-7.5.4.3c4.4 3.8 8.5 5.8 12.1 5.8 1.6 0 2.8-.3 3.7-1 .8-.7 1.3-1.4 1.3-2.5s-.4-2-1.3-2.5c-1-.7-3-1.4-5.9-2.1-4.9-1.1-8.5-2.7-10.9-4.5-2.4-2-3.5-4.9-3.5-9s1.6-7.3 4.5-9.5c3-2.3 6.6-3.2 10.9-3.2 2.8 0 5.6.4 8.5 1.4s5.4 2.4 7.5 4.1l.3.3-5.2 7.6-.4-.3c-3.5-2.7-7.2-4-10.9-4-1.4 0-2.5.3-3.4 1-.8.7-1.1 1.4-1.1 2.5 0 1 .4 1.8 1.4 2.4 1 .7 3.5 1.6 7.3 2.4 4 1 7.2 2.5 9.5 4.5s3.4 5.1 3.4 8.9c0 3.8-1.4 7.1-4.4 9.5-3.1 1.9-6.9 3.2-11.6 3.2zm-17.1-8c5.1 4.5 10.9 6.9 17.1 6.9 4.4 0 8.1-1.1 10.7-3.4 2.7-2.3 4-5.1 4-8.8 0-3.5-1-6.4-3.1-8.2-2.1-1.8-5.1-3.2-9-4.2-4.1-1-6.5-1.8-7.8-2.5-1.3-.8-1.8-2-1.8-3.2 0-1.4.6-2.4 1.6-3.2 1-.8 2.3-1.3 4-1.3 3.8 0 7.5 1.3 11 4l4.1-5.9c-2-1.6-4.2-2.8-6.8-3.7-2.7-1-5.5-1.4-8.2-1.4-4.1 0-7.6 1-10.3 3.1-2.7 2-4.1 4.9-4.1 8.8s1.1 6.6 3.2 8.3c2.1 1.8 5.6 3.2 10.5 4.4 3.1.8 5.2 1.6 6.4 2.3 1.1.8 1.7 2 1.7 3.4s-.6 2.5-1.7 3.4c-1 .8-2.5 1.3-4.4 1.3-3.8 0-7.9-2-12.4-5.6l-4.7 5.5z"/>
  <path class="st5" d="M399.6 146.8l-3.8-9h-17.5l-3.8 9h-9.9l17.9-41.7h9l17.9 41.7h-9.8zm-12.5-29.3l-5.2 12.1h10.5l-5.3-12.1z"/>
  <path class="st6" d="M410.2 147.2h-11l-3.8-9h-16.8l-3.8 9h-11l18.4-42.7h9.6l18.4 42.7zm-10.3-1h8.8l-17.5-40.5h-8.3l-17.5 40.5h8.8l3.8-9h18l3.9 9zm-6.9-16.1h-11.9l5.9-13.8 6 13.8zm-10.5-1h8.9l-4.4-10.3-4.5 10.3z"/>
  <path class="st5" d="M442.9 105.1v8.2h-19.4v9h18.4v8.2h-18.4v16.2h-9.3V105h28.7z"/>
  <path class="st6" d="M424.1 147.2h-10.3v-42.5h29.5v9.2h-19.4v8.1h18.4v9h-18.4v16.2h.2zm-9.3-1h8.3V130h18.4v-7.2h-18.4v-10h19.4v-7.2H415v40.7h-.2z"/>
  <path class="st5" d="M480.7 105.1v8.3H460v8.6h18.6v7.9H460v8.6h21.5v8.2h-30.6V105h29.8z"/>
  <path class="st6" d="M481.8 147.2h-31.6v-42.5h30.9v9.3h-20.8v7.6H479v8.9h-18.6v7.5h21.3v9.2h.1zm-30.6-1h29.7V139h-21.3v-9.6h18.6v-6.9h-18.6v-9.6h20.8v-7.3h-29v40.7h-.2z"/>
  <path class="st5" d="M507.3 113.2v33.6H498v-33.6h-11.7v-8.1h32.9v8.1h-11.9z"/>
  <path class="st6" d="M507.7 147.2h-10.3v-33.5h-11.7v-9h33.9v9h-11.7v33.5h-.2zm-9.2-1h8.3v-33.5h11.7v-7.1h-31.9v7.1h11.7v33.5h.2z"/>
  <path class="st5" d="M543.7 146.8h-9.3v-16.4L520 105.2h10l9 15.5 9-15.5h10l-14.4 25.1v16.5h.1z"/>
  <path class="st6" d="M544.3 147.2H534v-16.7l-14.8-25.8h11.2l8.8 15 8.8-15h11l-14.8 25.8v16.7h.1zm-9.3-1h8.3v-16.1l14-24.4h-8.9l-9.3 16-9.3-16h-8.9l14 24.6v16h.1z"/>
  <path class="st5" d="M619.6 125.7c0 4.4-1.1 8.2-3.2 11.7-2.3 3.4-5.2 6.1-8.9 7.8.4.6 1 1.1 1.7 1.6.7.4 1.6.6 2.4.6.8 0 1.7-.1 2.4-.4.8-.3 1.4-.6 1.8-1 1-.8 1.8-1.7 2.3-2.4l4.8 5.8c-3.4 3.7-7.6 5.4-12.9 5.4-2.4 0-4.7-.7-7.1-2-2.3-1.3-4.1-3.1-5.2-5.5-6.2 0-11.3-2.1-15.5-6.2-4.2-4.1-6.4-9.2-6.4-15.3 0-6.1 2.1-11.2 6.4-15.3 4.2-4.1 9.3-6.2 15.5-6.2 6.2 0 11.3 2.1 15.5 6.2 4.2 3.9 6.4 9.1 6.4 15.2zm-9.5 0c0-3.7-1.1-6.9-3.5-9.5-2.4-2.7-5.4-4-8.8-4s-6.4 1.3-8.8 4c-2.4 2.7-3.5 5.8-3.5 9.5s1.1 6.9 3.5 9.5 5.4 4 8.8 4 6.4-1.3 8.8-4c2.4-2.6 3.5-5.8 3.5-9.5z"/>
  <path class="st6" d="M610.1 155.2c-2.4 0-4.9-.7-7.2-2s-4.1-3.1-5.4-5.5c-6.1 0-11.3-2.1-15.5-6.4s-6.5-9.5-6.5-15.7c0-6.2 2.1-11.4 6.5-15.7 4.2-4.2 9.6-6.4 15.8-6.4s11.6 2.1 15.8 6.4c4.2 4.2 6.5 9.5 6.5 15.7 0 4.4-1.1 8.5-3.4 11.9-2.1 3.4-4.9 5.9-8.6 7.6.3.3.7.6 1.1.8 1.4.7 3 .7 4.5.1.7-.3 1.3-.6 1.7-.8 1-.8 1.7-1.6 2.1-2.3l.3-.7 5.5 6.6-.3.3c-3.3 4.2-7.7 6.1-12.9 6.1zm-12.3-50.5c-5.9 0-11.2 2-15.3 6.1-4.1 4-6.2 9-6.2 15s2.1 11 6.2 15 9.2 6.1 15.3 6.1h.3l.1.3c1.1 2.3 2.8 4.1 5.1 5.4 2.3 1.3 4.5 1.8 6.8 1.8 4.8 0 8.9-1.7 12.1-4.9l-4.1-4.9c-.4.7-1.1 1.3-2 2-.6.4-1.3.7-2.1 1-1.7.6-3.5.6-5.2-.3-.8-.4-1.4-1-1.8-1.7l-.3-.4.6-.3c3.7-1.7 6.5-4.2 8.6-7.5 2.1-3.4 3.2-7.2 3.2-11.4 0-5.9-2.1-11-6.2-15-4.1-4.2-9.2-6.3-15.1-6.3zm0 34.9c-3.5 0-6.6-1.4-9.2-4.1-2.4-2.7-3.7-5.9-3.7-9.7 0-3.8 1.3-7.1 3.7-9.9 2.4-2.7 5.5-4.1 9.2-4.1 3.5 0 6.6 1.4 9.2 4.1 2.4 2.7 3.7 6.1 3.7 9.9 0 3.8-1.3 7.1-3.7 9.7-2.6 2.6-5.7 4.1-9.2 4.1zm0-26.7c-3.2 0-6.1 1.3-8.5 3.8-2.3 2.5-3.4 5.6-3.4 9.2s1.1 6.6 3.4 9.2 5.1 3.7 8.5 3.7c3.2 0 6.1-1.3 8.5-3.7 2.3-2.5 3.4-5.5 3.4-9.2 0-3.5-1.1-6.6-3.4-9.2-2.4-2.7-5.2-3.8-8.5-3.8z"/>
  <path class="st5" d="M638.5 136c1.6 2 3.7 2.8 6.2 2.8 2.7 0 4.7-1 6.2-2.8 1.6-2 2.3-4.5 2.3-7.9v-23h9.3v23.3c0 6.1-1.7 10.6-4.9 13.8-3.4 3.2-7.6 4.8-12.9 4.8-5.2 0-9.5-1.7-12.9-4.9-3.4-3.2-5.1-7.9-5.1-13.8v-23.2h9.3v23c.2 3.4.9 6 2.5 7.9z"/>
  <path class="st6" d="M644.8 147.6c-5.4 0-9.7-1.7-13.1-5.1-3.4-3.4-5.2-8.1-5.2-14.3v-23.6h10.3V128c0 3.2.7 5.8 2.3 7.6 1.4 1.8 3.4 2.7 5.9 2.7s4.4-.8 5.8-2.7c1.4-1.8 2.1-4.4 2.1-7.6v-23.4h10.3v23.7c0 6.1-1.7 10.9-5.1 14.3-3.7 3.5-8 5-13.3 5zm-17.3-41.9v22.7c0 5.8 1.7 10.3 4.9 13.6 3.2 3.1 7.5 4.8 12.4 4.8 5.1 0 9.2-1.6 12.4-4.7 3.2-3.1 4.8-7.6 4.8-13.6v-22.9h-8.3v22.5c0 3.4-.8 6.2-2.4 8.2-1.6 2-3.8 3.1-6.6 3.1s-4.9-1-6.6-3.1c-1.6-2-2.4-4.8-2.4-8.2v-22.5h-8.2z"/>
  <path class="st5" d="M672.2 105.1h9.3v41.7h-9.3v-41.7z"/>
  <path class="st6" d="M682 147.2h-10.3v-42.5H682v42.5zm-9.3-1h8.3v-40.5h-8.3v40.5z"/>
  <path class="st5" d="M689.3 146.8v-6.4l21.8-27.3h-21V105h33.8v6.5L702 138.7h22v8.1h-34.7z"/>
  <path class="st6" d="M724.6 147.2h-35.9v-7.1l21.2-26.6h-20.5v-9h34.9v7.1l-.1.1-21 26.4h21.6v9h-.2zm-34.7-1h33.8v-7.1h-22.6l22.3-27.7v-5.8h-32.8v7.1h21.6l-22.3 27.8v5.7z"/>
  <path class="st7" d="M-42 97.2c-1 0-2-.4-2.7-1.1l-2.4-2.5c-1.1-1.3-3.1-2.1-4.9-2.1-.4 0-.8 0-1.3.1l-3.1.8c-.3 0-.4.1-.6.1 0-.1.1-.3.3-.6l9-12.9c1.8-2.7 4.4-4.1 6.9-4.1s5.1 1.4 6.9 4.1l11 15.4c.1.1.3.3.3.4-.1 0-.3 0-.4-.1l-6.5-2.1c-.6-.1-1.3-.3-2-.3-1.7 0-3.4.6-4.7 1.3l-4.1 2.8c-.5.6-1 .8-1.7.8z"/>
</svg>
